<svg width="208" height="49" viewBox="0 0 208 49" fill="none" xmlns="http://www.w3.org/2000/svg">
<path d="M40.9613 0.544383C32.0427 3.59327 20.7314 6.53327 17.4685 6.53327C8.3324 6.53327 7.4623 9.14661 16.0546 10.9977C21.2752 12.1955 21.9278 12.5222 20.2963 13.7199C18.8824 14.8088 18.7736 15.4622 19.7525 17.3133C20.4051 18.6199 21.3839 19.5999 22.0365 19.5999C24.5381 19.5999 22.254 23.3022 19.2087 24.0644C16.1633 24.9355 15.0757 24.3911 13.9881 21.3422C13.4443 19.5999 7.57106 21.7777 7.02724 23.8466C6.70096 25.0444 4.74322 26.6777 2.56797 27.5488C-1.23874 29.0733 0.0664186 29.1822 22.3628 29.291C43.354 29.3999 45.9644 29.6177 44.768 31.0333C43.6803 32.3399 43.6803 32.6666 45.0943 32.6666C45.9644 32.6666 47.2695 31.9044 48.0309 31.0333C48.7922 30.1622 50.5324 29.3999 52.0551 29.3999C54.9917 29.3999 56.6231 32.1222 54.6654 34.0822C53.0339 35.7155 53.1427 39.1999 54.9917 39.8533C55.8618 40.1799 57.8195 39.6355 59.3422 38.6555C61.6262 37.1311 62.4963 37.0222 63.6927 38.1111C65.4329 39.5266 87.2943 38.6555 95.3427 36.9133C98.0618 36.3688 103.826 36.4777 110.678 37.2399C120.249 38.3288 122.098 38.2199 125.144 36.6955C128.407 35.0622 130.038 35.0622 143.416 36.4777C157.555 38.1111 160.818 38.0022 159.513 35.9333C158.643 34.6266 165.93 33.3199 169.954 34.1911C172.021 34.6266 174.196 34.1911 175.718 33.2111C179.199 30.9244 183.876 31.3599 195.187 35.0622C209.653 39.8533 211.719 38.5466 199.755 32.4488C194.426 29.7266 188.988 26.4599 187.9 25.1533C185.833 22.8666 185.833 22.8666 188.226 22.8666C192.468 22.8666 190.51 19.1644 185.942 18.4022C183.549 18.0755 180.722 16.5511 179.199 14.9177C177.785 13.3933 174.522 11.5422 171.912 10.8888C169.301 10.2355 164.407 8.49327 161.036 6.96883C156.141 4.68216 154.075 4.24661 150.486 4.89994C147.223 5.44438 145.374 5.11772 143.525 3.91994C140.371 1.74216 129.277 1.63327 123.186 3.81105C119.053 5.22661 118.4 5.11772 113.615 3.04883C107.524 0.326605 92.9499 -6.18746e-05 83.9226 2.2866C79.0283 3.48438 78.3757 3.48438 76.3092 1.63327C74.1339 -0.326729 73.8077 -0.326729 68.9133 1.41549C64.2365 3.15772 63.0401 3.15772 55.318 1.63327C47.052 -6.18746e-05 43.2453 -0.21784 40.9613 0.544383Z" fill="#161616"/>
<path d="M182.353 1.52431C179.743 3.48431 180.939 6.5332 184.42 6.5332C187.247 6.5332 190.075 3.04876 188.879 1.08876C187.9 -0.435685 184.746 -0.217907 182.353 1.52431Z" fill="#161616"/>
<path d="M36.6109 38.2197C36.1758 38.873 36.1758 39.6352 36.5021 39.9619C37.3722 40.833 40.4176 39.4175 40.4176 38.1108C40.4176 36.6952 37.481 36.6952 36.6109 38.2197Z" fill="#161616"/>
<path d="M67.9346 42.14C64.6717 43.4467 67.282 49 71.0887 49C74.0253 49 74.6779 46.06 72.5026 43.5556C70.4361 41.2689 70.1098 41.16 67.9346 42.14Z" fill="#161616"/>
</svg>
