<svg width="1920" height="125" viewBox="0 0 1920 125" fill="none" xmlns="http://www.w3.org/2000/svg">
<rect width="1920" height="125" fill="#096C50"/>
<g clip-path="url(#clip0_607:181)">
<path fill-rule="evenodd" clip-rule="evenodd" d="M20.2861 13.3742C20.2362 13.3963 19.9108 13.7237 19.563 14.1018C17.6483 16.1835 16.152 18.3709 14.9797 20.8018C14.4938 21.8094 13.6823 24.0454 13.4894 24.9082C13.3379 25.586 13.1935 26.4106 13.1424 26.8896C13.1213 27.0883 13.0908 27.2448 13.0746 27.2375C13.0585 27.2302 12.9937 27.0561 12.9308 26.8508C12.8679 26.6454 12.6816 26.1517 12.5168 25.7536C11.3805 23.0079 9.12188 20.0631 6.40584 17.7862C5.55922 17.0764 5.47588 17.1303 5.60214 18.3053C5.79292 20.0806 6.24864 22.0189 6.88661 23.7686C7.17635 24.5633 7.97555 26.2348 8.38928 26.9115C8.58789 27.2363 8.932 27.7499 9.15396 28.0528L9.55753 28.6034L8.72272 28.3529C6.86856 27.7965 5.11771 27.6026 3.3755 27.7606C3.10961 27.7847 3.06489 27.8054 3.00167 27.9336C2.95646 28.0252 2.94708 28.1214 2.97644 28.1931C3.08005 28.4465 4.61227 29.757 5.48221 30.3364C6.30444 30.8839 6.82673 31.1463 7.89094 31.5463C8.46594 31.7625 9.05986 31.968 9.21077 32.003L9.48515 32.0667L8.94911 32.553C8.43489 33.0195 8.07921 33.4213 7.69011 33.9754C7.47744 34.2782 7.4247 34.4517 7.51158 34.5627C7.67608 34.773 9.50474 34.6349 10.4183 34.3432C11.0936 34.1276 11.9402 33.6766 12.286 33.3485C12.4384 33.2039 12.4383 33.2041 11.8935 34.7219L11.3485 36.24L11.4416 36.4049C11.5161 36.5369 11.5691 36.5767 11.7075 36.6047C12.0415 36.6722 12.0163 36.7131 12.6757 35.0392L13.2716 33.5268L13.3942 34.0466C13.682 35.2667 14.5303 36.5555 15.6654 37.4972C16.0073 37.7809 16.0974 37.8234 16.2162 37.7572C16.4194 37.644 16.5034 36.3211 16.3747 35.262C16.3025 34.6684 16.3038 34.5992 16.3857 34.6609C16.5726 34.8017 18.2347 35.4442 18.7864 35.5889C20.0275 35.9144 21.4386 36.0633 22.8706 36.0197C23.693 35.9947 23.8387 35.9618 23.9036 35.7863C23.966 35.6175 23.9448 35.57 23.6842 35.2939C22.5627 34.1055 21.092 33.0964 19.3275 32.3047L18.5334 31.9484L19.1719 31.8023C21.0304 31.3769 23.049 30.5153 24.9199 29.3488C26.1541 28.5793 27.1883 27.7977 28.282 26.8082C28.853 26.2916 28.9771 26.1576 28.9598 26.0766C28.9239 25.9079 28.7753 25.8743 28.0149 25.8632C24.1854 25.8067 20.3774 26.6583 17.6287 28.1858C16.7283 28.6861 16.7596 28.6727 16.8876 28.5028C17.1087 28.2093 17.6702 27.2891 18.0066 26.6691C18.4663 25.8217 19.2336 23.922 19.5448 22.8609C20.3566 20.0934 20.7156 17.1056 20.5959 14.115C20.5678 13.4145 20.5097 13.2755 20.2861 13.3742Z" fill="#0C7759"/>
<path fill-rule="evenodd" clip-rule="evenodd" d="M123.794 93.1482C123.781 93.1934 123.822 93.5896 123.884 94.0285C124.229 96.4445 124.874 98.6409 125.861 100.756C126.27 101.632 127.324 103.401 127.797 104.003C128.169 104.476 128.643 105.026 128.936 105.323C129.058 105.446 129.146 105.552 129.132 105.559C129.119 105.566 128.966 105.513 128.794 105.442C128.621 105.371 128.188 105.223 127.83 105.114C125.363 104.359 122.145 104.241 119.124 104.793C118.183 104.965 118.173 105.05 119.031 105.612C120.327 106.461 121.878 107.224 123.403 107.762C124.096 108.007 125.657 108.395 126.338 108.492C126.665 108.539 127.199 108.592 127.524 108.611L128.116 108.646L127.489 109.063C126.096 109.989 125.003 111.045 124.152 112.289C124.022 112.479 124.011 112.52 124.062 112.632C124.099 112.713 124.158 112.772 124.223 112.792C124.45 112.862 126.171 112.565 127.038 112.306C127.858 112.06 128.321 111.858 129.174 111.371C129.635 111.108 130.1 110.826 130.206 110.745L130.4 110.598L130.432 111.221C130.462 111.819 130.536 112.276 130.694 112.839C130.78 113.147 130.868 113.278 130.99 113.281C131.222 113.287 132.134 111.997 132.441 111.229C132.667 110.662 132.83 109.852 132.8 109.442C132.786 109.261 132.787 109.262 133.506 110.458L134.225 111.654L134.386 111.683C134.516 111.706 134.572 111.693 134.667 111.616C134.896 111.432 134.909 111.471 134.148 110.113L133.461 108.885L133.877 109.09C134.854 109.569 136.185 109.714 137.441 109.478C137.82 109.407 137.898 109.37 137.919 109.255C137.954 109.058 137.113 108.275 136.331 107.778C135.893 107.5 135.848 107.461 135.934 107.44C136.131 107.394 137.476 106.643 137.876 106.356C138.777 105.71 139.653 104.855 140.411 103.88C140.846 103.32 140.904 103.205 140.822 103.065C140.743 102.931 140.699 102.919 140.371 102.941C138.957 103.032 137.471 103.454 135.97 104.191L135.294 104.523L135.547 104.018C136.284 102.55 136.815 100.736 137.061 98.8517C137.223 97.6089 137.267 96.4923 137.204 95.2219C137.171 94.5587 137.15 94.4026 137.086 94.3695C136.953 94.3006 136.849 94.3809 136.423 94.8798C134.28 97.3924 132.758 100.39 132.272 103.055C132.113 103.928 132.121 103.9 132.078 103.722C132.002 103.414 131.693 102.535 131.462 101.971C131.146 101.199 130.293 99.6455 129.752 98.8555C128.341 96.7949 126.534 94.914 124.461 93.3496C123.976 92.9832 123.85 92.9454 123.794 93.1482Z" fill="#0C7759"/>
<path fill-rule="evenodd" clip-rule="evenodd" d="M66.2579 42.1554C66.2173 42.2391 66.1574 43.0245 66.1245 43.9005C65.944 48.7235 66.4267 53.2235 67.6028 57.6843C68.0903 59.5332 69.5199 63.3425 70.2284 64.6799C70.785 65.7307 71.5142 66.9649 71.9805 67.6457C72.1739 67.9281 72.3083 68.1657 72.2792 68.174C72.25 68.1822 71.9719 68.0266 71.6614 67.8281C71.3508 67.6296 70.5586 67.191 69.9009 66.8534C65.3643 64.5246 59.1428 63.1724 53.068 63.1946C51.1744 63.2015 51.1256 63.3635 52.5976 64.7566C54.8216 66.8613 57.5724 68.8868 60.351 70.4657C61.6129 71.1828 64.5148 72.4821 65.8072 72.9089C66.4276 73.1137 67.4477 73.4044 68.074 73.5549L69.213 73.8284L67.8457 74.4212C64.809 75.7376 62.3102 77.4129 60.2143 79.5377C59.8944 79.8619 59.8592 79.9382 59.9194 80.175C59.9624 80.3442 60.0572 80.48 60.1752 80.5411C60.5922 80.7574 64.0482 80.7788 65.8271 80.5762C67.5085 80.3846 68.4814 80.1515 70.3141 79.5011C71.3044 79.1497 72.3075 78.7636 72.5433 78.6431L72.9719 78.424L72.814 79.6484C72.6625 80.8229 72.6457 81.7386 72.7549 82.8896C72.8145 83.5187 72.9388 83.803 73.1756 83.8521C73.6241 83.9451 75.8548 81.7512 76.7215 80.3647C77.3621 79.3398 77.9643 77.8194 78.0501 77.0108C78.0879 76.6543 78.0881 76.6547 79.0663 79.2338L80.0448 81.8134L80.3496 81.926C80.5936 82.0161 80.7071 82.0096 80.9186 81.8938C81.4293 81.6139 81.4418 81.6949 80.4394 78.7861L79.5336 76.1579L80.2717 76.7005C82.0045 77.9745 84.5446 78.7208 87.0724 78.6987C87.8339 78.692 87.9987 78.6482 88.08 78.431C88.219 78.0597 86.8566 76.2422 85.5104 75.0029C84.7558 74.3084 84.6805 74.2167 84.8559 74.2071C85.2563 74.1848 88.1385 73.1921 89.0188 72.7732C90.9993 71.8308 93.0048 70.4709 94.8236 68.837C95.8681 67.8987 96.0214 67.6953 95.9108 67.395C95.8043 67.1062 95.7239 67.0676 95.077 66.9946C92.2924 66.6801 89.2519 66.984 86.0703 67.895L84.6384 68.3049L85.3084 67.4113C87.2584 64.8099 88.9319 61.4633 90.0735 57.8817C90.8266 55.5192 91.3056 53.3612 91.6307 50.8664C91.8005 49.564 91.8132 49.2526 91.7006 49.166C91.4661 48.9855 91.235 49.1054 90.2309 49.9283C85.1749 54.0721 81.157 59.3763 79.2724 64.3951C78.655 66.0392 78.6809 65.9872 78.6588 65.6247C78.6205 64.9984 78.3289 63.1802 78.0776 62.0013C77.7342 60.3901 76.6211 57.068 75.8464 55.3417C73.8257 50.839 70.9695 46.5478 67.486 42.7801C66.67 41.8977 66.4396 41.7805 66.2579 42.1554Z" fill="#0C7759"/>
</g>
<g clip-path="url(#clip1_607:181)">
<path fill-rule="evenodd" clip-rule="evenodd" d="M164.286 13.3742C164.236 13.3963 163.911 13.7237 163.563 14.1018C161.648 16.1835 160.152 18.3709 158.98 20.8018C158.494 21.8094 157.682 24.0454 157.489 24.9082C157.338 25.586 157.193 26.4106 157.142 26.8896C157.121 27.0883 157.091 27.2448 157.075 27.2375C157.058 27.2302 156.994 27.0561 156.931 26.8508C156.868 26.6454 156.682 26.1517 156.517 25.7536C155.381 23.0079 153.122 20.0631 150.406 17.7862C149.559 17.0764 149.476 17.1303 149.602 18.3053C149.793 20.0806 150.249 22.0189 150.887 23.7686C151.176 24.5633 151.976 26.2348 152.389 26.9115C152.588 27.2363 152.932 27.7499 153.154 28.0528L153.558 28.6034L152.723 28.3529C150.869 27.7965 149.118 27.6026 147.376 27.7606C147.11 27.7847 147.065 27.8054 147.002 27.9336C146.956 28.0252 146.947 28.1214 146.976 28.1931C147.08 28.4465 148.612 29.757 149.482 30.3364C150.304 30.8839 150.827 31.1463 151.891 31.5463C152.466 31.7625 153.06 31.968 153.211 32.003L153.485 32.0667L152.949 32.553C152.435 33.0195 152.079 33.4213 151.69 33.9754C151.477 34.2782 151.425 34.4517 151.512 34.5627C151.676 34.773 153.505 34.6349 154.418 34.3432C155.094 34.1276 155.94 33.6766 156.286 33.3485C156.438 33.2039 156.438 33.2041 155.893 34.7219L155.349 36.24L155.442 36.4049C155.516 36.5369 155.569 36.5767 155.707 36.6047C156.041 36.6722 156.016 36.7131 156.676 35.0392L157.272 33.5268L157.394 34.0466C157.682 35.2667 158.53 36.5555 159.665 37.4972C160.007 37.7809 160.097 37.8234 160.216 37.7572C160.419 37.644 160.503 36.3211 160.375 35.262C160.303 34.6684 160.304 34.5992 160.386 34.6609C160.573 34.8017 162.235 35.4442 162.786 35.5889C164.028 35.9144 165.439 36.0633 166.871 36.0197C167.693 35.9947 167.839 35.9618 167.904 35.7863C167.966 35.6175 167.945 35.57 167.684 35.2939C166.563 34.1055 165.092 33.0964 163.327 32.3047L162.533 31.9484L163.172 31.8023C165.03 31.3769 167.049 30.5153 168.92 29.3488C170.154 28.5793 171.188 27.7977 172.282 26.8082C172.853 26.2916 172.977 26.1576 172.96 26.0766C172.924 25.9079 172.775 25.8743 172.015 25.8632C168.185 25.8067 164.377 26.6583 161.629 28.1858C160.728 28.6861 160.76 28.6727 160.888 28.5028C161.109 28.2093 161.67 27.2891 162.007 26.6691C162.466 25.8217 163.234 23.922 163.545 22.8609C164.357 20.0934 164.716 17.1056 164.596 14.115C164.568 13.4145 164.51 13.2755 164.286 13.3742Z" fill="#0C7759"/>
<path fill-rule="evenodd" clip-rule="evenodd" d="M267.794 93.1482C267.781 93.1934 267.822 93.5896 267.884 94.0285C268.229 96.4445 268.874 98.6409 269.861 100.756C270.27 101.632 271.324 103.401 271.797 104.003C272.169 104.476 272.643 105.026 272.936 105.323C273.058 105.446 273.146 105.552 273.132 105.559C273.119 105.566 272.966 105.513 272.794 105.442C272.621 105.371 272.188 105.223 271.83 105.114C269.363 104.359 266.145 104.241 263.124 104.793C262.183 104.965 262.173 105.05 263.031 105.612C264.327 106.461 265.878 107.224 267.403 107.762C268.096 108.007 269.657 108.395 270.338 108.492C270.665 108.539 271.199 108.592 271.524 108.611L272.116 108.646L271.489 109.063C270.096 109.989 269.003 111.045 268.152 112.289C268.022 112.479 268.011 112.52 268.062 112.632C268.099 112.713 268.158 112.772 268.223 112.792C268.45 112.862 270.171 112.565 271.038 112.306C271.858 112.06 272.321 111.858 273.174 111.371C273.635 111.108 274.1 110.826 274.206 110.745L274.4 110.598L274.432 111.221C274.462 111.819 274.536 112.276 274.694 112.839C274.78 113.147 274.868 113.278 274.99 113.281C275.222 113.287 276.134 111.997 276.441 111.229C276.667 110.662 276.83 109.852 276.8 109.442C276.786 109.261 276.787 109.262 277.506 110.458L278.225 111.654L278.386 111.683C278.516 111.706 278.572 111.693 278.667 111.616C278.896 111.432 278.909 111.471 278.148 110.113L277.461 108.885L277.877 109.09C278.854 109.569 280.185 109.714 281.441 109.478C281.82 109.407 281.898 109.37 281.919 109.255C281.954 109.058 281.113 108.275 280.331 107.778C279.893 107.5 279.848 107.461 279.934 107.44C280.131 107.394 281.476 106.643 281.876 106.356C282.777 105.71 283.653 104.855 284.411 103.88C284.846 103.32 284.904 103.205 284.822 103.065C284.743 102.931 284.699 102.919 284.371 102.941C282.957 103.032 281.471 103.454 279.97 104.191L279.294 104.523L279.547 104.018C280.284 102.55 280.815 100.736 281.061 98.8517C281.223 97.6089 281.267 96.4923 281.204 95.2219C281.171 94.5587 281.15 94.4026 281.086 94.3695C280.953 94.3006 280.849 94.3809 280.423 94.8798C278.28 97.3924 276.758 100.39 276.272 103.055C276.113 103.928 276.121 103.9 276.078 103.722C276.002 103.414 275.693 102.535 275.462 101.971C275.146 101.199 274.293 99.6455 273.752 98.8555C272.341 96.7949 270.534 94.914 268.461 93.3496C267.976 92.9832 267.85 92.9454 267.794 93.1482Z" fill="#0C7759"/>
<path fill-rule="evenodd" clip-rule="evenodd" d="M210.258 42.1554C210.217 42.2391 210.157 43.0245 210.125 43.9005C209.944 48.7235 210.427 53.2235 211.603 57.6843C212.09 59.5332 213.52 63.3425 214.228 64.6799C214.785 65.7307 215.514 66.9649 215.98 67.6457C216.174 67.9281 216.308 68.1657 216.279 68.174C216.25 68.1822 215.972 68.0266 215.661 67.8281C215.351 67.6296 214.559 67.191 213.901 66.8534C209.364 64.5246 203.143 63.1724 197.068 63.1946C195.174 63.2015 195.126 63.3635 196.598 64.7566C198.822 66.8613 201.572 68.8868 204.351 70.4657C205.613 71.1828 208.515 72.4821 209.807 72.9089C210.428 73.1137 211.448 73.4044 212.074 73.5549L213.213 73.8284L211.846 74.4212C208.809 75.7376 206.31 77.4129 204.214 79.5377C203.894 79.8619 203.859 79.9382 203.919 80.175C203.962 80.3442 204.057 80.48 204.175 80.5411C204.592 80.7574 208.048 80.7788 209.827 80.5762C211.508 80.3846 212.481 80.1515 214.314 79.5011C215.304 79.1497 216.307 78.7636 216.543 78.6431L216.972 78.424L216.814 79.6484C216.662 80.8229 216.646 81.7386 216.755 82.8896C216.815 83.5187 216.939 83.803 217.176 83.8521C217.624 83.9451 219.855 81.7512 220.721 80.3647C221.362 79.3398 221.964 77.8194 222.05 77.0108C222.088 76.6543 222.088 76.6547 223.066 79.2338L224.045 81.8134L224.35 81.926C224.594 82.0161 224.707 82.0096 224.919 81.8938C225.429 81.6139 225.442 81.6949 224.439 78.7861L223.534 76.1579L224.272 76.7005C226.005 77.9745 228.545 78.7208 231.072 78.6987C231.834 78.692 231.999 78.6482 232.08 78.431C232.219 78.0597 230.857 76.2422 229.51 75.0029C228.756 74.3084 228.68 74.2167 228.856 74.2071C229.256 74.1848 232.138 73.1921 233.019 72.7732C234.999 71.8308 237.005 70.4709 238.824 68.837C239.868 67.8987 240.021 67.6953 239.911 67.395C239.804 67.1062 239.724 67.0676 239.077 66.9946C236.292 66.6801 233.252 66.984 230.07 67.895L228.638 68.3049L229.308 67.4113C231.258 64.8099 232.932 61.4633 234.074 57.8817C234.827 55.5192 235.306 53.3612 235.631 50.8664C235.8 49.564 235.813 49.2526 235.701 49.166C235.466 48.9855 235.235 49.1054 234.231 49.9283C229.175 54.0721 225.157 59.3763 223.272 64.3951C222.655 66.0392 222.681 65.9872 222.659 65.6247C222.621 64.9984 222.329 63.1802 222.078 62.0013C221.734 60.3901 220.621 57.068 219.846 55.3417C217.826 50.839 214.97 46.5478 211.486 42.7801C210.67 41.8977 210.44 41.7805 210.258 42.1554Z" fill="#0C7759"/>
</g>
<g clip-path="url(#clip2_607:181)">
<path fill-rule="evenodd" clip-rule="evenodd" d="M308.286 13.3742C308.236 13.3963 307.911 13.7237 307.563 14.1018C305.648 16.1835 304.152 18.3709 302.98 20.8018C302.494 21.8094 301.682 24.0454 301.489 24.9082C301.338 25.586 301.193 26.4106 301.142 26.8896C301.121 27.0883 301.091 27.2448 301.075 27.2375C301.058 27.2302 300.994 27.0561 300.931 26.8508C300.868 26.6454 300.682 26.1517 300.517 25.7536C299.38 23.0079 297.122 20.0631 294.406 17.7862C293.559 17.0764 293.476 17.1303 293.602 18.3053C293.793 20.0806 294.249 22.0189 294.887 23.7686C295.176 24.5633 295.975 26.2348 296.389 26.9115C296.588 27.2363 296.932 27.7499 297.154 28.0528L297.557 28.6034L296.723 28.3529C294.869 27.7965 293.118 27.6026 291.375 27.7606C291.11 27.7847 291.065 27.8054 291.002 27.9336C290.956 28.0252 290.947 28.1214 290.976 28.1931C291.08 28.4465 292.612 29.757 293.482 30.3364C294.304 30.8839 294.827 31.1463 295.891 31.5463C296.466 31.7625 297.06 31.968 297.211 32.003L297.485 32.0667L296.949 32.553C296.435 33.0195 296.079 33.4213 295.69 33.9754C295.477 34.2782 295.425 34.4517 295.512 34.5627C295.676 34.773 297.505 34.6349 298.418 34.3432C299.094 34.1276 299.94 33.6766 300.286 33.3485C300.438 33.2039 300.438 33.2041 299.893 34.7219L299.348 36.24L299.442 36.4049C299.516 36.5369 299.569 36.5767 299.707 36.6047C300.041 36.6722 300.016 36.7131 300.676 35.0392L301.272 33.5268L301.394 34.0466C301.682 35.2667 302.53 36.5555 303.665 37.4972C304.007 37.7809 304.097 37.8234 304.216 37.7572C304.419 37.644 304.503 36.3211 304.375 35.262C304.302 34.6684 304.304 34.5992 304.386 34.6609C304.573 34.8017 306.235 35.4442 306.786 35.5889C308.027 35.9144 309.439 36.0633 310.871 36.0197C311.693 35.9947 311.839 35.9618 311.904 35.7863C311.966 35.6175 311.945 35.57 311.684 35.2939C310.563 34.1055 309.092 33.0964 307.327 32.3047L306.533 31.9484L307.172 31.8023C309.03 31.3769 311.049 30.5153 312.92 29.3488C314.154 28.5793 315.188 27.7977 316.282 26.8082C316.853 26.2916 316.977 26.1576 316.96 26.0766C316.924 25.9079 316.775 25.8743 316.015 25.8632C312.185 25.8067 308.377 26.6583 305.629 28.1858C304.728 28.6861 304.76 28.6727 304.888 28.5028C305.109 28.2093 305.67 27.2891 306.006 26.6691C306.466 25.8217 307.234 23.922 307.545 22.8609C308.357 20.0934 308.716 17.1056 308.596 14.115C308.568 13.4145 308.51 13.2755 308.286 13.3742Z" fill="#0C7759"/>
<path fill-rule="evenodd" clip-rule="evenodd" d="M411.794 93.1482C411.781 93.1934 411.822 93.5896 411.884 94.0285C412.229 96.4445 412.874 98.6409 413.861 100.756C414.27 101.632 415.324 103.401 415.797 104.003C416.169 104.476 416.643 105.026 416.936 105.323C417.058 105.446 417.146 105.552 417.132 105.559C417.119 105.566 416.966 105.513 416.794 105.442C416.621 105.371 416.188 105.223 415.83 105.114C413.363 104.359 410.145 104.241 407.124 104.793C406.183 104.965 406.173 105.05 407.031 105.612C408.327 106.461 409.878 107.224 411.403 107.762C412.096 108.007 413.657 108.395 414.338 108.492C414.665 108.539 415.199 108.592 415.524 108.611L416.116 108.646L415.489 109.063C414.096 109.989 413.003 111.045 412.152 112.289C412.022 112.479 412.011 112.52 412.062 112.632C412.099 112.713 412.158 112.772 412.223 112.792C412.45 112.862 414.171 112.565 415.038 112.306C415.858 112.06 416.321 111.858 417.174 111.371C417.635 111.108 418.1 110.826 418.206 110.745L418.4 110.598L418.432 111.221C418.462 111.819 418.536 112.276 418.694 112.839C418.78 113.147 418.868 113.278 418.99 113.281C419.222 113.287 420.134 111.997 420.441 111.229C420.667 110.662 420.83 109.852 420.8 109.442C420.786 109.261 420.787 109.262 421.506 110.458L422.225 111.654L422.386 111.683C422.516 111.706 422.572 111.693 422.667 111.616C422.896 111.432 422.909 111.471 422.148 110.113L421.461 108.885L421.877 109.09C422.854 109.569 424.185 109.714 425.441 109.478C425.82 109.407 425.898 109.37 425.919 109.255C425.954 109.058 425.113 108.275 424.331 107.778C423.893 107.5 423.848 107.461 423.934 107.44C424.131 107.394 425.476 106.643 425.876 106.356C426.777 105.71 427.653 104.855 428.411 103.88C428.846 103.32 428.904 103.205 428.822 103.065C428.743 102.931 428.699 102.919 428.371 102.941C426.957 103.032 425.471 103.454 423.97 104.191L423.294 104.523L423.547 104.018C424.284 102.55 424.815 100.736 425.061 98.8517C425.223 97.6089 425.267 96.4923 425.204 95.2219C425.171 94.5587 425.15 94.4026 425.086 94.3695C424.953 94.3006 424.849 94.3809 424.423 94.8798C422.28 97.3924 420.758 100.39 420.272 103.055C420.113 103.928 420.121 103.9 420.078 103.722C420.002 103.414 419.693 102.535 419.462 101.971C419.146 101.199 418.293 99.6455 417.752 98.8555C416.341 96.7949 414.534 94.914 412.461 93.3496C411.976 92.9832 411.85 92.9454 411.794 93.1482Z" fill="#0C7759"/>
<path fill-rule="evenodd" clip-rule="evenodd" d="M354.258 42.1554C354.217 42.2391 354.157 43.0245 354.125 43.9005C353.944 48.7235 354.427 53.2235 355.603 57.6843C356.09 59.5332 357.52 63.3425 358.228 64.6799C358.785 65.7307 359.514 66.9649 359.98 67.6457C360.174 67.9281 360.308 68.1657 360.279 68.174C360.25 68.1822 359.972 68.0266 359.661 67.8281C359.351 67.6296 358.559 67.191 357.901 66.8534C353.364 64.5246 347.143 63.1724 341.068 63.1946C339.174 63.2015 339.126 63.3635 340.598 64.7566C342.822 66.8613 345.572 68.8868 348.351 70.4657C349.613 71.1828 352.515 72.4821 353.807 72.9089C354.428 73.1137 355.448 73.4044 356.074 73.5549L357.213 73.8284L355.846 74.4212C352.809 75.7376 350.31 77.4129 348.214 79.5377C347.894 79.8619 347.859 79.9382 347.919 80.175C347.962 80.3442 348.057 80.48 348.175 80.5411C348.592 80.7574 352.048 80.7788 353.827 80.5762C355.508 80.3846 356.481 80.1515 358.314 79.5011C359.304 79.1497 360.307 78.7636 360.543 78.6431L360.972 78.424L360.814 79.6484C360.662 80.8229 360.646 81.7386 360.755 82.8896C360.815 83.5187 360.939 83.803 361.176 83.8521C361.624 83.9451 363.855 81.7512 364.721 80.3647C365.362 79.3398 365.964 77.8194 366.05 77.0108C366.088 76.6543 366.088 76.6547 367.066 79.2338L368.045 81.8134L368.35 81.926C368.594 82.0161 368.707 82.0096 368.919 81.8938C369.429 81.6139 369.442 81.6949 368.439 78.7861L367.534 76.1579L368.272 76.7005C370.005 77.9745 372.545 78.7208 375.072 78.6987C375.834 78.692 375.999 78.6482 376.08 78.431C376.219 78.0597 374.857 76.2422 373.51 75.0029C372.756 74.3084 372.68 74.2167 372.856 74.2071C373.256 74.1848 376.138 73.1921 377.019 72.7732C378.999 71.8308 381.005 70.4709 382.824 68.837C383.868 67.8987 384.021 67.6953 383.911 67.395C383.804 67.1062 383.724 67.0676 383.077 66.9946C380.292 66.6801 377.252 66.984 374.07 67.895L372.638 68.3049L373.308 67.4113C375.258 64.8099 376.932 61.4633 378.074 57.8817C378.827 55.5192 379.306 53.3612 379.631 50.8664C379.8 49.564 379.813 49.2526 379.701 49.166C379.466 48.9855 379.235 49.1054 378.231 49.9283C373.175 54.0721 369.157 59.3763 367.272 64.3951C366.655 66.0392 366.681 65.9872 366.659 65.6247C366.621 64.9984 366.329 63.1802 366.078 62.0013C365.734 60.3901 364.621 57.068 363.846 55.3417C361.826 50.839 358.97 46.5478 355.486 42.7801C354.67 41.8977 354.44 41.7805 354.258 42.1554Z" fill="#0C7759"/>
</g>
<g clip-path="url(#clip3_607:181)">
<path fill-rule="evenodd" clip-rule="evenodd" d="M452.286 13.3742C452.236 13.3963 451.911 13.7237 451.563 14.1018C449.648 16.1835 448.152 18.3709 446.98 20.8018C446.494 21.8094 445.682 24.0454 445.489 24.9082C445.338 25.586 445.193 26.4106 445.142 26.8896C445.121 27.0883 445.091 27.2448 445.075 27.2375C445.058 27.2302 444.994 27.0561 444.931 26.8508C444.868 26.6454 444.682 26.1517 444.517 25.7536C443.38 23.0079 441.122 20.0631 438.406 17.7862C437.559 17.0764 437.476 17.1303 437.602 18.3053C437.793 20.0806 438.249 22.0189 438.887 23.7686C439.176 24.5633 439.975 26.2348 440.389 26.9115C440.588 27.2363 440.932 27.7499 441.154 28.0528L441.557 28.6034L440.723 28.3529C438.869 27.7965 437.118 27.6026 435.375 27.7606C435.11 27.7847 435.065 27.8054 435.002 27.9336C434.956 28.0252 434.947 28.1214 434.976 28.1931C435.08 28.4465 436.612 29.757 437.482 30.3364C438.304 30.8839 438.827 31.1463 439.891 31.5463C440.466 31.7625 441.06 31.968 441.211 32.003L441.485 32.0667L440.949 32.553C440.435 33.0195 440.079 33.4213 439.69 33.9754C439.477 34.2782 439.425 34.4517 439.512 34.5627C439.676 34.773 441.505 34.6349 442.418 34.3432C443.094 34.1276 443.94 33.6766 444.286 33.3485C444.438 33.2039 444.438 33.2041 443.893 34.7219L443.348 36.24L443.442 36.4049C443.516 36.5369 443.569 36.5767 443.707 36.6047C444.041 36.6722 444.016 36.7131 444.676 35.0392L445.272 33.5268L445.394 34.0466C445.682 35.2667 446.53 36.5555 447.665 37.4972C448.007 37.7809 448.097 37.8234 448.216 37.7572C448.419 37.644 448.503 36.3211 448.375 35.262C448.302 34.6684 448.304 34.5992 448.386 34.6609C448.573 34.8017 450.235 35.4442 450.786 35.5889C452.027 35.9144 453.439 36.0633 454.871 36.0197C455.693 35.9947 455.839 35.9618 455.904 35.7863C455.966 35.6175 455.945 35.57 455.684 35.2939C454.563 34.1055 453.092 33.0964 451.327 32.3047L450.533 31.9484L451.172 31.8023C453.03 31.3769 455.049 30.5153 456.92 29.3488C458.154 28.5793 459.188 27.7977 460.282 26.8082C460.853 26.2916 460.977 26.1576 460.96 26.0766C460.924 25.9079 460.775 25.8743 460.015 25.8632C456.185 25.8067 452.377 26.6583 449.629 28.1858C448.728 28.6861 448.76 28.6727 448.888 28.5028C449.109 28.2093 449.67 27.2891 450.006 26.6691C450.466 25.8217 451.234 23.922 451.545 22.8609C452.357 20.0934 452.716 17.1056 452.596 14.115C452.568 13.4145 452.51 13.2755 452.286 13.3742Z" fill="#0C7759"/>
<path fill-rule="evenodd" clip-rule="evenodd" d="M555.794 93.1482C555.781 93.1934 555.822 93.5896 555.884 94.0285C556.229 96.4445 556.874 98.6409 557.861 100.756C558.27 101.632 559.324 103.401 559.797 104.003C560.169 104.476 560.643 105.026 560.936 105.323C561.058 105.446 561.146 105.552 561.132 105.559C561.119 105.566 560.966 105.513 560.794 105.442C560.621 105.371 560.188 105.223 559.83 105.114C557.363 104.359 554.145 104.241 551.124 104.793C550.183 104.965 550.173 105.05 551.031 105.612C552.327 106.461 553.878 107.224 555.403 107.762C556.096 108.007 557.657 108.395 558.338 108.492C558.665 108.539 559.199 108.592 559.524 108.611L560.116 108.646L559.489 109.063C558.096 109.989 557.003 111.045 556.152 112.289C556.022 112.479 556.011 112.52 556.062 112.632C556.099 112.713 556.158 112.772 556.223 112.792C556.45 112.862 558.171 112.565 559.038 112.306C559.858 112.06 560.321 111.858 561.174 111.371C561.635 111.108 562.1 110.826 562.206 110.745L562.4 110.598L562.432 111.221C562.462 111.819 562.536 112.276 562.694 112.839C562.78 113.147 562.868 113.278 562.99 113.281C563.222 113.287 564.134 111.997 564.441 111.229C564.667 110.662 564.83 109.852 564.8 109.442C564.786 109.261 564.787 109.262 565.506 110.458L566.225 111.654L566.386 111.683C566.516 111.706 566.572 111.693 566.667 111.616C566.896 111.432 566.909 111.471 566.148 110.113L565.461 108.885L565.877 109.09C566.854 109.569 568.185 109.714 569.441 109.478C569.82 109.407 569.898 109.37 569.919 109.255C569.954 109.058 569.113 108.275 568.331 107.778C567.893 107.5 567.848 107.461 567.934 107.44C568.131 107.394 569.476 106.643 569.876 106.356C570.777 105.71 571.653 104.855 572.411 103.88C572.846 103.32 572.904 103.205 572.822 103.065C572.743 102.931 572.699 102.919 572.371 102.941C570.957 103.032 569.471 103.454 567.97 104.191L567.294 104.523L567.547 104.018C568.284 102.55 568.815 100.736 569.061 98.8517C569.223 97.6089 569.267 96.4923 569.204 95.2219C569.171 94.5587 569.15 94.4026 569.086 94.3695C568.953 94.3006 568.849 94.3809 568.423 94.8798C566.28 97.3924 564.758 100.39 564.272 103.055C564.113 103.928 564.121 103.9 564.078 103.722C564.002 103.414 563.693 102.535 563.462 101.971C563.146 101.199 562.293 99.6455 561.752 98.8555C560.341 96.7949 558.534 94.914 556.461 93.3496C555.976 92.9832 555.85 92.9454 555.794 93.1482Z" fill="#0C7759"/>
<path fill-rule="evenodd" clip-rule="evenodd" d="M498.258 42.1554C498.217 42.2391 498.157 43.0245 498.125 43.9005C497.944 48.7235 498.427 53.2235 499.603 57.6843C500.09 59.5332 501.52 63.3425 502.228 64.6799C502.785 65.7307 503.514 66.9649 503.98 67.6457C504.174 67.9281 504.308 68.1657 504.279 68.174C504.25 68.1822 503.972 68.0266 503.661 67.8281C503.351 67.6296 502.559 67.191 501.901 66.8534C497.364 64.5246 491.143 63.1724 485.068 63.1946C483.174 63.2015 483.126 63.3635 484.598 64.7566C486.822 66.8613 489.572 68.8868 492.351 70.4657C493.613 71.1828 496.515 72.4821 497.807 72.9089C498.428 73.1137 499.448 73.4044 500.074 73.5549L501.213 73.8284L499.846 74.4212C496.809 75.7376 494.31 77.4129 492.214 79.5377C491.894 79.8619 491.859 79.9382 491.919 80.175C491.962 80.3442 492.057 80.48 492.175 80.5411C492.592 80.7574 496.048 80.7788 497.827 80.5762C499.508 80.3846 500.481 80.1515 502.314 79.5011C503.304 79.1497 504.307 78.7636 504.543 78.6431L504.972 78.424L504.814 79.6484C504.662 80.8229 504.646 81.7386 504.755 82.8896C504.815 83.5187 504.939 83.803 505.176 83.8521C505.624 83.9451 507.855 81.7512 508.721 80.3647C509.362 79.3398 509.964 77.8194 510.05 77.0108C510.088 76.6543 510.088 76.6547 511.066 79.2338L512.045 81.8134L512.35 81.926C512.594 82.0161 512.707 82.0096 512.919 81.8938C513.429 81.6139 513.442 81.6949 512.439 78.7861L511.534 76.1579L512.272 76.7005C514.005 77.9745 516.545 78.7208 519.072 78.6987C519.834 78.692 519.999 78.6482 520.08 78.431C520.219 78.0597 518.857 76.2422 517.51 75.0029C516.756 74.3084 516.68 74.2167 516.856 74.2071C517.256 74.1848 520.138 73.1921 521.019 72.7732C522.999 71.8308 525.005 70.4709 526.824 68.837C527.868 67.8987 528.021 67.6953 527.911 67.395C527.804 67.1062 527.724 67.0676 527.077 66.9946C524.292 66.6801 521.252 66.984 518.07 67.895L516.638 68.3049L517.308 67.4113C519.258 64.8099 520.932 61.4633 522.074 57.8817C522.827 55.5192 523.306 53.3612 523.631 50.8664C523.8 49.564 523.813 49.2526 523.701 49.166C523.466 48.9855 523.235 49.1054 522.231 49.9283C517.175 54.0721 513.157 59.3763 511.272 64.3951C510.655 66.0392 510.681 65.9872 510.659 65.6247C510.621 64.9984 510.329 63.1802 510.078 62.0013C509.734 60.3901 508.621 57.068 507.846 55.3417C505.826 50.839 502.97 46.5478 499.486 42.7801C498.67 41.8977 498.44 41.7805 498.258 42.1554Z" fill="#0C7759"/>
</g>
<g clip-path="url(#clip4_607:181)">
<path fill-rule="evenodd" clip-rule="evenodd" d="M596.286 13.3742C596.236 13.3963 595.911 13.7237 595.563 14.1018C593.648 16.1835 592.152 18.3709 590.98 20.8018C590.494 21.8094 589.682 24.0454 589.489 24.9082C589.338 25.586 589.193 26.4106 589.142 26.8896C589.121 27.0883 589.091 27.2448 589.075 27.2375C589.058 27.2302 588.994 27.0561 588.931 26.8508C588.868 26.6454 588.682 26.1517 588.517 25.7536C587.38 23.0079 585.122 20.0631 582.406 17.7862C581.559 17.0764 581.476 17.1303 581.602 18.3053C581.793 20.0806 582.249 22.0189 582.887 23.7686C583.176 24.5633 583.975 26.2348 584.389 26.9115C584.588 27.2363 584.932 27.7499 585.154 28.0528L585.557 28.6034L584.723 28.3529C582.869 27.7965 581.118 27.6026 579.375 27.7606C579.11 27.7847 579.065 27.8054 579.002 27.9336C578.956 28.0252 578.947 28.1214 578.976 28.1931C579.08 28.4465 580.612 29.757 581.482 30.3364C582.304 30.8839 582.827 31.1463 583.891 31.5463C584.466 31.7625 585.06 31.968 585.211 32.003L585.485 32.0667L584.949 32.553C584.435 33.0195 584.079 33.4213 583.69 33.9754C583.477 34.2782 583.425 34.4517 583.512 34.5627C583.676 34.773 585.505 34.6349 586.418 34.3432C587.094 34.1276 587.94 33.6766 588.286 33.3485C588.438 33.2039 588.438 33.2041 587.893 34.7219L587.348 36.24L587.442 36.4049C587.516 36.5369 587.569 36.5767 587.707 36.6047C588.041 36.6722 588.016 36.7131 588.676 35.0392L589.272 33.5268L589.394 34.0466C589.682 35.2667 590.53 36.5555 591.665 37.4972C592.007 37.7809 592.097 37.8234 592.216 37.7572C592.419 37.644 592.503 36.3211 592.375 35.262C592.302 34.6684 592.304 34.5992 592.386 34.6609C592.573 34.8017 594.235 35.4442 594.786 35.5889C596.027 35.9144 597.439 36.0633 598.871 36.0197C599.693 35.9947 599.839 35.9618 599.904 35.7863C599.966 35.6175 599.945 35.57 599.684 35.2939C598.563 34.1055 597.092 33.0964 595.327 32.3047L594.533 31.9484L595.172 31.8023C597.03 31.3769 599.049 30.5153 600.92 29.3488C602.154 28.5793 603.188 27.7977 604.282 26.8082C604.853 26.2916 604.977 26.1576 604.96 26.0766C604.924 25.9079 604.775 25.8743 604.015 25.8632C600.185 25.8067 596.377 26.6583 593.629 28.1858C592.728 28.6861 592.76 28.6727 592.888 28.5028C593.109 28.2093 593.67 27.2891 594.006 26.6691C594.466 25.8217 595.234 23.922 595.545 22.8609C596.357 20.0934 596.716 17.1056 596.596 14.115C596.568 13.4145 596.51 13.2755 596.286 13.3742Z" fill="#0C7759"/>
<path fill-rule="evenodd" clip-rule="evenodd" d="M699.794 93.1482C699.781 93.1934 699.822 93.5896 699.884 94.0285C700.229 96.4445 700.874 98.6409 701.861 100.756C702.27 101.632 703.324 103.401 703.797 104.003C704.169 104.476 704.643 105.026 704.936 105.323C705.058 105.446 705.146 105.552 705.132 105.559C705.119 105.566 704.966 105.513 704.794 105.442C704.621 105.371 704.188 105.223 703.83 105.114C701.363 104.359 698.145 104.241 695.124 104.793C694.183 104.965 694.173 105.05 695.031 105.612C696.327 106.461 697.878 107.224 699.403 107.762C700.096 108.007 701.657 108.395 702.338 108.492C702.665 108.539 703.199 108.592 703.524 108.611L704.116 108.646L703.489 109.063C702.096 109.989 701.003 111.045 700.152 112.289C700.022 112.479 700.011 112.52 700.062 112.632C700.099 112.713 700.158 112.772 700.223 112.792C700.45 112.862 702.171 112.565 703.038 112.306C703.858 112.06 704.321 111.858 705.174 111.371C705.635 111.108 706.1 110.826 706.206 110.745L706.4 110.598L706.432 111.221C706.462 111.819 706.536 112.276 706.694 112.839C706.78 113.147 706.868 113.278 706.99 113.281C707.222 113.287 708.134 111.997 708.441 111.229C708.667 110.662 708.83 109.852 708.8 109.442C708.786 109.261 708.787 109.262 709.506 110.458L710.225 111.654L710.386 111.683C710.516 111.706 710.572 111.693 710.667 111.616C710.896 111.432 710.909 111.471 710.148 110.113L709.461 108.885L709.877 109.09C710.854 109.569 712.185 109.714 713.441 109.478C713.82 109.407 713.898 109.37 713.919 109.255C713.954 109.058 713.113 108.275 712.331 107.778C711.893 107.5 711.848 107.461 711.934 107.44C712.131 107.394 713.476 106.643 713.876 106.356C714.777 105.71 715.653 104.855 716.411 103.88C716.846 103.32 716.904 103.205 716.822 103.065C716.743 102.931 716.699 102.919 716.371 102.941C714.957 103.032 713.471 103.454 711.97 104.191L711.294 104.523L711.547 104.018C712.284 102.55 712.815 100.736 713.061 98.8517C713.223 97.6089 713.267 96.4923 713.204 95.2219C713.171 94.5587 713.15 94.4026 713.086 94.3695C712.953 94.3006 712.849 94.3809 712.423 94.8798C710.28 97.3924 708.758 100.39 708.272 103.055C708.113 103.928 708.121 103.9 708.078 103.722C708.002 103.414 707.693 102.535 707.462 101.971C707.146 101.199 706.293 99.6455 705.752 98.8555C704.341 96.7949 702.534 94.914 700.461 93.3496C699.976 92.9832 699.85 92.9454 699.794 93.1482Z" fill="#0C7759"/>
<path fill-rule="evenodd" clip-rule="evenodd" d="M642.258 42.1554C642.217 42.2391 642.157 43.0245 642.125 43.9005C641.944 48.7235 642.427 53.2235 643.603 57.6843C644.09 59.5332 645.52 63.3425 646.228 64.6799C646.785 65.7307 647.514 66.9649 647.98 67.6457C648.174 67.9281 648.308 68.1657 648.279 68.174C648.25 68.1822 647.972 68.0266 647.661 67.8281C647.351 67.6296 646.559 67.191 645.901 66.8534C641.364 64.5246 635.143 63.1724 629.068 63.1946C627.174 63.2015 627.126 63.3635 628.598 64.7566C630.822 66.8613 633.572 68.8868 636.351 70.4657C637.613 71.1828 640.515 72.4821 641.807 72.9089C642.428 73.1137 643.448 73.4044 644.074 73.5549L645.213 73.8284L643.846 74.4212C640.809 75.7376 638.31 77.4129 636.214 79.5377C635.894 79.8619 635.859 79.9382 635.919 80.175C635.962 80.3442 636.057 80.48 636.175 80.5411C636.592 80.7574 640.048 80.7788 641.827 80.5762C643.508 80.3846 644.481 80.1515 646.314 79.5011C647.304 79.1497 648.307 78.7636 648.543 78.6431L648.972 78.424L648.814 79.6484C648.662 80.8229 648.646 81.7386 648.755 82.8896C648.815 83.5187 648.939 83.803 649.176 83.8521C649.624 83.9451 651.855 81.7512 652.721 80.3647C653.362 79.3398 653.964 77.8194 654.05 77.0108C654.088 76.6543 654.088 76.6547 655.066 79.2338L656.045 81.8134L656.35 81.926C656.594 82.0161 656.707 82.0096 656.919 81.8938C657.429 81.6139 657.442 81.6949 656.439 78.7861L655.534 76.1579L656.272 76.7005C658.005 77.9745 660.545 78.7208 663.072 78.6987C663.834 78.692 663.999 78.6482 664.08 78.431C664.219 78.0597 662.857 76.2422 661.51 75.0029C660.756 74.3084 660.68 74.2167 660.856 74.2071C661.256 74.1848 664.138 73.1921 665.019 72.7732C666.999 71.8308 669.005 70.4709 670.824 68.837C671.868 67.8987 672.021 67.6953 671.911 67.395C671.804 67.1062 671.724 67.0676 671.077 66.9946C668.292 66.6801 665.252 66.984 662.07 67.895L660.638 68.3049L661.308 67.4113C663.258 64.8099 664.932 61.4633 666.074 57.8817C666.827 55.5192 667.306 53.3612 667.631 50.8664C667.8 49.564 667.813 49.2526 667.701 49.166C667.466 48.9855 667.235 49.1054 666.231 49.9283C661.175 54.0721 657.157 59.3763 655.272 64.3951C654.655 66.0392 654.681 65.9872 654.659 65.6247C654.621 64.9984 654.329 63.1802 654.078 62.0013C653.734 60.3901 652.621 57.068 651.846 55.3417C649.826 50.839 646.97 46.5478 643.486 42.7801C642.67 41.8977 642.44 41.7805 642.258 42.1554Z" fill="#0C7759"/>
</g>
<g clip-path="url(#clip5_607:181)">
<path fill-rule="evenodd" clip-rule="evenodd" d="M740.286 13.3742C740.236 13.3963 739.911 13.7237 739.563 14.1018C737.648 16.1835 736.152 18.3709 734.98 20.8018C734.494 21.8094 733.682 24.0454 733.489 24.9082C733.338 25.586 733.193 26.4106 733.142 26.8896C733.121 27.0883 733.091 27.2448 733.075 27.2375C733.058 27.2302 732.994 27.0561 732.931 26.8508C732.868 26.6454 732.682 26.1517 732.517 25.7536C731.38 23.0079 729.122 20.0631 726.406 17.7862C725.559 17.0764 725.476 17.1303 725.602 18.3053C725.793 20.0806 726.249 22.0189 726.887 23.7686C727.176 24.5633 727.975 26.2348 728.389 26.9115C728.588 27.2363 728.932 27.7499 729.154 28.0528L729.557 28.6034L728.723 28.3529C726.869 27.7965 725.118 27.6026 723.375 27.7606C723.11 27.7847 723.065 27.8054 723.002 27.9336C722.956 28.0252 722.947 28.1214 722.976 28.1931C723.08 28.4465 724.612 29.757 725.482 30.3364C726.304 30.8839 726.827 31.1463 727.891 31.5463C728.466 31.7625 729.06 31.968 729.211 32.003L729.485 32.0667L728.949 32.553C728.435 33.0195 728.079 33.4213 727.69 33.9754C727.477 34.2782 727.425 34.4517 727.512 34.5627C727.676 34.773 729.505 34.6349 730.418 34.3432C731.094 34.1276 731.94 33.6766 732.286 33.3485C732.438 33.2039 732.438 33.2041 731.893 34.7219L731.348 36.24L731.442 36.4049C731.516 36.5369 731.569 36.5767 731.707 36.6047C732.041 36.6722 732.016 36.7131 732.676 35.0392L733.272 33.5268L733.394 34.0466C733.682 35.2667 734.53 36.5555 735.665 37.4972C736.007 37.7809 736.097 37.8234 736.216 37.7572C736.419 37.644 736.503 36.3211 736.375 35.262C736.302 34.6684 736.304 34.5992 736.386 34.6609C736.573 34.8017 738.235 35.4442 738.786 35.5889C740.027 35.9144 741.439 36.0633 742.871 36.0197C743.693 35.9947 743.839 35.9618 743.904 35.7863C743.966 35.6175 743.945 35.57 743.684 35.2939C742.563 34.1055 741.092 33.0964 739.327 32.3047L738.533 31.9484L739.172 31.8023C741.03 31.3769 743.049 30.5153 744.92 29.3488C746.154 28.5793 747.188 27.7977 748.282 26.8082C748.853 26.2916 748.977 26.1576 748.96 26.0766C748.924 25.9079 748.775 25.8743 748.015 25.8632C744.185 25.8067 740.377 26.6583 737.629 28.1858C736.728 28.6861 736.76 28.6727 736.888 28.5028C737.109 28.2093 737.67 27.2891 738.006 26.6691C738.466 25.8217 739.234 23.922 739.545 22.8609C740.357 20.0934 740.716 17.1056 740.596 14.115C740.568 13.4145 740.51 13.2755 740.286 13.3742Z" fill="#0C7759"/>
<path fill-rule="evenodd" clip-rule="evenodd" d="M843.794 93.1482C843.781 93.1934 843.822 93.5896 843.884 94.0285C844.229 96.4445 844.874 98.6409 845.861 100.756C846.27 101.632 847.324 103.401 847.797 104.003C848.169 104.476 848.643 105.026 848.936 105.323C849.058 105.446 849.146 105.552 849.132 105.559C849.119 105.566 848.966 105.513 848.794 105.442C848.621 105.371 848.188 105.223 847.83 105.114C845.363 104.359 842.145 104.241 839.124 104.793C838.183 104.965 838.173 105.05 839.031 105.612C840.327 106.461 841.878 107.224 843.403 107.762C844.096 108.007 845.657 108.395 846.338 108.492C846.665 108.539 847.199 108.592 847.524 108.611L848.116 108.646L847.489 109.063C846.096 109.989 845.003 111.045 844.152 112.289C844.022 112.479 844.011 112.52 844.062 112.632C844.099 112.713 844.158 112.772 844.223 112.792C844.45 112.862 846.171 112.565 847.038 112.306C847.858 112.06 848.321 111.858 849.174 111.371C849.635 111.108 850.1 110.826 850.206 110.745L850.4 110.598L850.432 111.221C850.462 111.819 850.536 112.276 850.694 112.839C850.78 113.147 850.868 113.278 850.99 113.281C851.222 113.287 852.134 111.997 852.441 111.229C852.667 110.662 852.83 109.852 852.8 109.442C852.786 109.261 852.787 109.262 853.506 110.458L854.225 111.654L854.386 111.683C854.516 111.706 854.572 111.693 854.667 111.616C854.896 111.432 854.909 111.471 854.148 110.113L853.461 108.885L853.877 109.09C854.854 109.569 856.185 109.714 857.441 109.478C857.82 109.407 857.898 109.37 857.919 109.255C857.954 109.058 857.113 108.275 856.331 107.778C855.893 107.5 855.848 107.461 855.934 107.44C856.131 107.394 857.476 106.643 857.876 106.356C858.777 105.71 859.653 104.855 860.411 103.88C860.846 103.32 860.904 103.205 860.822 103.065C860.743 102.931 860.699 102.919 860.371 102.941C858.957 103.032 857.471 103.454 855.97 104.191L855.294 104.523L855.547 104.018C856.284 102.55 856.815 100.736 857.061 98.8517C857.223 97.6089 857.267 96.4923 857.204 95.2219C857.171 94.5587 857.15 94.4026 857.086 94.3695C856.953 94.3006 856.849 94.3809 856.423 94.8798C854.28 97.3924 852.758 100.39 852.272 103.055C852.113 103.928 852.121 103.9 852.078 103.722C852.002 103.414 851.693 102.535 851.462 101.971C851.146 101.199 850.293 99.6455 849.752 98.8555C848.341 96.7949 846.534 94.914 844.461 93.3496C843.976 92.9832 843.85 92.9454 843.794 93.1482Z" fill="#0C7759"/>
<path fill-rule="evenodd" clip-rule="evenodd" d="M786.258 42.1554C786.217 42.2391 786.157 43.0245 786.125 43.9005C785.944 48.7235 786.427 53.2235 787.603 57.6843C788.09 59.5332 789.52 63.3425 790.228 64.6799C790.785 65.7307 791.514 66.9649 791.98 67.6457C792.174 67.9281 792.308 68.1657 792.279 68.174C792.25 68.1822 791.972 68.0266 791.661 67.8281C791.351 67.6296 790.559 67.191 789.901 66.8534C785.364 64.5246 779.143 63.1724 773.068 63.1946C771.174 63.2015 771.126 63.3635 772.598 64.7566C774.822 66.8613 777.572 68.8868 780.351 70.4657C781.613 71.1828 784.515 72.4821 785.807 72.9089C786.428 73.1137 787.448 73.4044 788.074 73.5549L789.213 73.8284L787.846 74.4212C784.809 75.7376 782.31 77.4129 780.214 79.5377C779.894 79.8619 779.859 79.9382 779.919 80.175C779.962 80.3442 780.057 80.48 780.175 80.5411C780.592 80.7574 784.048 80.7788 785.827 80.5762C787.508 80.3846 788.481 80.1515 790.314 79.5011C791.304 79.1497 792.307 78.7636 792.543 78.6431L792.972 78.424L792.814 79.6484C792.662 80.8229 792.646 81.7386 792.755 82.8896C792.815 83.5187 792.939 83.803 793.176 83.8521C793.624 83.9451 795.855 81.7512 796.721 80.3647C797.362 79.3398 797.964 77.8194 798.05 77.0108C798.088 76.6543 798.088 76.6547 799.066 79.2338L800.045 81.8134L800.35 81.926C800.594 82.0161 800.707 82.0096 800.919 81.8938C801.429 81.6139 801.442 81.6949 800.439 78.7861L799.534 76.1579L800.272 76.7005C802.005 77.9745 804.545 78.7208 807.072 78.6987C807.834 78.692 807.999 78.6482 808.08 78.431C808.219 78.0597 806.857 76.2422 805.51 75.0029C804.756 74.3084 804.68 74.2167 804.856 74.2071C805.256 74.1848 808.138 73.1921 809.019 72.7732C810.999 71.8308 813.005 70.4709 814.824 68.837C815.868 67.8987 816.021 67.6953 815.911 67.395C815.804 67.1062 815.724 67.0676 815.077 66.9946C812.292 66.6801 809.252 66.984 806.07 67.895L804.638 68.3049L805.308 67.4113C807.258 64.8099 808.932 61.4633 810.074 57.8817C810.827 55.5192 811.306 53.3612 811.631 50.8664C811.8 49.564 811.813 49.2526 811.701 49.166C811.466 48.9855 811.235 49.1054 810.231 49.9283C805.175 54.0721 801.157 59.3763 799.272 64.3951C798.655 66.0392 798.681 65.9872 798.659 65.6247C798.621 64.9984 798.329 63.1802 798.078 62.0013C797.734 60.3901 796.621 57.068 795.846 55.3417C793.826 50.839 790.97 46.5478 787.486 42.7801C786.67 41.8977 786.44 41.7805 786.258 42.1554Z" fill="#0C7759"/>
</g>
<g clip-path="url(#clip6_607:181)">
<path fill-rule="evenodd" clip-rule="evenodd" d="M884.286 13.3742C884.236 13.3963 883.911 13.7237 883.563 14.1018C881.648 16.1835 880.152 18.3709 878.98 20.8018C878.494 21.8094 877.682 24.0454 877.489 24.9082C877.338 25.586 877.193 26.4106 877.142 26.8896C877.121 27.0883 877.091 27.2448 877.075 27.2375C877.058 27.2302 876.994 27.0561 876.931 26.8508C876.868 26.6454 876.682 26.1517 876.517 25.7536C875.38 23.0079 873.122 20.0631 870.406 17.7862C869.559 17.0764 869.476 17.1303 869.602 18.3053C869.793 20.0806 870.249 22.0189 870.887 23.7686C871.176 24.5633 871.975 26.2348 872.389 26.9115C872.588 27.2363 872.932 27.7499 873.154 28.0528L873.557 28.6034L872.723 28.3529C870.869 27.7965 869.118 27.6026 867.375 27.7606C867.11 27.7847 867.065 27.8054 867.002 27.9336C866.956 28.0252 866.947 28.1214 866.976 28.1931C867.08 28.4465 868.612 29.757 869.482 30.3364C870.304 30.8839 870.827 31.1463 871.891 31.5463C872.466 31.7625 873.06 31.968 873.211 32.003L873.485 32.0667L872.949 32.553C872.435 33.0195 872.079 33.4213 871.69 33.9754C871.477 34.2782 871.425 34.4517 871.512 34.5627C871.676 34.773 873.505 34.6349 874.418 34.3432C875.094 34.1276 875.94 33.6766 876.286 33.3485C876.438 33.2039 876.438 33.2041 875.893 34.7219L875.348 36.24L875.442 36.4049C875.516 36.5369 875.569 36.5767 875.707 36.6047C876.041 36.6722 876.016 36.7131 876.676 35.0392L877.272 33.5268L877.394 34.0466C877.682 35.2667 878.53 36.5555 879.665 37.4972C880.007 37.7809 880.097 37.8234 880.216 37.7572C880.419 37.644 880.503 36.3211 880.375 35.262C880.302 34.6684 880.304 34.5992 880.386 34.6609C880.573 34.8017 882.235 35.4442 882.786 35.5889C884.027 35.9144 885.439 36.0633 886.871 36.0197C887.693 35.9947 887.839 35.9618 887.904 35.7863C887.966 35.6175 887.945 35.57 887.684 35.2939C886.563 34.1055 885.092 33.0964 883.327 32.3047L882.533 31.9484L883.172 31.8023C885.03 31.3769 887.049 30.5153 888.92 29.3488C890.154 28.5793 891.188 27.7977 892.282 26.8082C892.853 26.2916 892.977 26.1576 892.96 26.0766C892.924 25.9079 892.775 25.8743 892.015 25.8632C888.185 25.8067 884.377 26.6583 881.629 28.1858C880.728 28.6861 880.76 28.6727 880.888 28.5028C881.109 28.2093 881.67 27.2891 882.006 26.6691C882.466 25.8217 883.234 23.922 883.545 22.8609C884.357 20.0934 884.716 17.1056 884.596 14.115C884.568 13.4145 884.51 13.2755 884.286 13.3742Z" fill="#0C7759"/>
<path fill-rule="evenodd" clip-rule="evenodd" d="M987.794 93.1482C987.781 93.1934 987.822 93.5896 987.884 94.0285C988.229 96.4445 988.874 98.6409 989.861 100.756C990.27 101.632 991.324 103.401 991.797 104.003C992.169 104.476 992.643 105.026 992.936 105.323C993.058 105.446 993.146 105.552 993.132 105.559C993.119 105.566 992.966 105.513 992.794 105.442C992.621 105.371 992.188 105.223 991.83 105.114C989.363 104.359 986.145 104.241 983.124 104.793C982.183 104.965 982.173 105.05 983.031 105.612C984.327 106.461 985.878 107.224 987.403 107.762C988.096 108.007 989.657 108.395 990.338 108.492C990.665 108.539 991.199 108.592 991.524 108.611L992.116 108.646L991.489 109.063C990.096 109.989 989.003 111.045 988.152 112.289C988.022 112.479 988.011 112.52 988.062 112.632C988.099 112.713 988.158 112.772 988.223 112.792C988.45 112.862 990.171 112.565 991.038 112.306C991.858 112.06 992.321 111.858 993.174 111.371C993.635 111.108 994.1 110.826 994.206 110.745L994.4 110.598L994.432 111.221C994.462 111.819 994.536 112.276 994.694 112.839C994.78 113.147 994.868 113.278 994.99 113.281C995.222 113.287 996.134 111.997 996.441 111.229C996.667 110.662 996.83 109.852 996.8 109.442C996.786 109.261 996.787 109.262 997.506 110.458L998.225 111.654L998.386 111.683C998.516 111.706 998.572 111.693 998.667 111.616C998.896 111.432 998.909 111.471 998.148 110.113L997.461 108.885L997.877 109.09C998.854 109.569 1000.19 109.714 1001.44 109.478C1001.82 109.407 1001.9 109.37 1001.92 109.255C1001.95 109.058 1001.11 108.275 1000.33 107.778C999.893 107.5 999.848 107.461 999.934 107.44C1000.13 107.394 1001.48 106.643 1001.88 106.356C1002.78 105.71 1003.65 104.855 1004.41 103.88C1004.85 103.32 1004.9 103.205 1004.82 103.065C1004.74 102.931 1004.7 102.919 1004.37 102.941C1002.96 103.032 1001.47 103.454 999.97 104.191L999.294 104.523L999.547 104.018C1000.28 102.55 1000.81 100.736 1001.06 98.8517C1001.22 97.6089 1001.27 96.4923 1001.2 95.2219C1001.17 94.5587 1001.15 94.4026 1001.09 94.3695C1000.95 94.3006 1000.85 94.3809 1000.42 94.8798C998.28 97.3924 996.758 100.39 996.272 103.055C996.113 103.928 996.121 103.9 996.078 103.722C996.002 103.414 995.693 102.535 995.462 101.971C995.146 101.199 994.293 99.6455 993.752 98.8555C992.341 96.7949 990.534 94.914 988.461 93.3496C987.976 92.9832 987.85 92.9454 987.794 93.1482Z" fill="#0C7759"/>
<path fill-rule="evenodd" clip-rule="evenodd" d="M930.258 42.1554C930.217 42.2391 930.157 43.0245 930.125 43.9005C929.944 48.7235 930.427 53.2235 931.603 57.6843C932.09 59.5332 933.52 63.3425 934.228 64.6799C934.785 65.7307 935.514 66.9649 935.98 67.6457C936.174 67.9281 936.308 68.1657 936.279 68.174C936.25 68.1822 935.972 68.0266 935.661 67.8281C935.351 67.6296 934.559 67.191 933.901 66.8534C929.364 64.5246 923.143 63.1724 917.068 63.1946C915.174 63.2015 915.126 63.3635 916.598 64.7566C918.822 66.8613 921.572 68.8868 924.351 70.4657C925.613 71.1828 928.515 72.4821 929.807 72.9089C930.428 73.1137 931.448 73.4044 932.074 73.5549L933.213 73.8284L931.846 74.4212C928.809 75.7376 926.31 77.4129 924.214 79.5377C923.894 79.8619 923.859 79.9382 923.919 80.175C923.962 80.3442 924.057 80.48 924.175 80.5411C924.592 80.7574 928.048 80.7788 929.827 80.5762C931.508 80.3846 932.481 80.1515 934.314 79.5011C935.304 79.1497 936.307 78.7636 936.543 78.6431L936.972 78.424L936.814 79.6484C936.662 80.8229 936.646 81.7386 936.755 82.8896C936.815 83.5187 936.939 83.803 937.176 83.8521C937.624 83.9451 939.855 81.7512 940.721 80.3647C941.362 79.3398 941.964 77.8194 942.05 77.0108C942.088 76.6543 942.088 76.6547 943.066 79.2338L944.045 81.8134L944.35 81.926C944.594 82.0161 944.707 82.0096 944.919 81.8938C945.429 81.6139 945.442 81.6949 944.439 78.7861L943.534 76.1579L944.272 76.7005C946.005 77.9745 948.545 78.7208 951.072 78.6987C951.834 78.692 951.999 78.6482 952.08 78.431C952.219 78.0597 950.857 76.2422 949.51 75.0029C948.756 74.3084 948.68 74.2167 948.856 74.2071C949.256 74.1848 952.138 73.1921 953.019 72.7732C954.999 71.8308 957.005 70.4709 958.824 68.837C959.868 67.8987 960.021 67.6953 959.911 67.395C959.804 67.1062 959.724 67.0676 959.077 66.9946C956.292 66.6801 953.252 66.984 950.07 67.895L948.638 68.3049L949.308 67.4113C951.258 64.8099 952.932 61.4633 954.074 57.8817C954.827 55.5192 955.306 53.3612 955.631 50.8664C955.8 49.564 955.813 49.2526 955.701 49.166C955.466 48.9855 955.235 49.1054 954.231 49.9283C949.175 54.0721 945.157 59.3763 943.272 64.3951C942.655 66.0392 942.681 65.9872 942.659 65.6247C942.621 64.9984 942.329 63.1802 942.078 62.0013C941.734 60.3901 940.621 57.068 939.846 55.3417C937.826 50.839 934.97 46.5478 931.486 42.7801C930.67 41.8977 930.44 41.7805 930.258 42.1554Z" fill="#0C7759"/>
</g>
<g clip-path="url(#clip7_607:181)">
<path fill-rule="evenodd" clip-rule="evenodd" d="M1028.29 13.3742C1028.24 13.3963 1027.91 13.7237 1027.56 14.1018C1025.65 16.1835 1024.15 18.3709 1022.98 20.8018C1022.49 21.8094 1021.68 24.0454 1021.49 24.9082C1021.34 25.586 1021.19 26.4106 1021.14 26.8896C1021.12 27.0883 1021.09 27.2448 1021.07 27.2375C1021.06 27.2302 1020.99 27.0561 1020.93 26.8508C1020.87 26.6454 1020.68 26.1517 1020.52 25.7536C1019.38 23.0079 1017.12 20.0631 1014.41 17.7862C1013.56 17.0764 1013.48 17.1303 1013.6 18.3053C1013.79 20.0806 1014.25 22.0189 1014.89 23.7686C1015.18 24.5633 1015.98 26.2348 1016.39 26.9115C1016.59 27.2363 1016.93 27.7499 1017.15 28.0528L1017.56 28.6034L1016.72 28.3529C1014.87 27.7965 1013.12 27.6026 1011.38 27.7606C1011.11 27.7847 1011.06 27.8054 1011 27.9336C1010.96 28.0252 1010.95 28.1214 1010.98 28.1931C1011.08 28.4465 1012.61 29.757 1013.48 30.3364C1014.3 30.8839 1014.83 31.1463 1015.89 31.5463C1016.47 31.7625 1017.06 31.968 1017.21 32.003L1017.49 32.0667L1016.95 32.553C1016.43 33.0195 1016.08 33.4213 1015.69 33.9754C1015.48 34.2782 1015.42 34.4517 1015.51 34.5627C1015.68 34.773 1017.5 34.6349 1018.42 34.3432C1019.09 34.1276 1019.94 33.6766 1020.29 33.3485C1020.44 33.2039 1020.44 33.2041 1019.89 34.7219L1019.35 36.24L1019.44 36.4049C1019.52 36.5369 1019.57 36.5767 1019.71 36.6047C1020.04 36.6722 1020.02 36.7131 1020.68 35.0392L1021.27 33.5268L1021.39 34.0466C1021.68 35.2667 1022.53 36.5555 1023.67 37.4972C1024.01 37.7809 1024.1 37.8234 1024.22 37.7572C1024.42 37.644 1024.5 36.3211 1024.37 35.262C1024.3 34.6684 1024.3 34.5992 1024.39 34.6609C1024.57 34.8017 1026.23 35.4442 1026.79 35.5889C1028.03 35.9144 1029.44 36.0633 1030.87 36.0197C1031.69 35.9947 1031.84 35.9618 1031.9 35.7863C1031.97 35.6175 1031.94 35.57 1031.68 35.2939C1030.56 34.1055 1029.09 33.0964 1027.33 32.3047L1026.53 31.9484L1027.17 31.8023C1029.03 31.3769 1031.05 30.5153 1032.92 29.3488C1034.15 28.5793 1035.19 27.7977 1036.28 26.8082C1036.85 26.2916 1036.98 26.1576 1036.96 26.0766C1036.92 25.9079 1036.78 25.8743 1036.01 25.8632C1032.19 25.8067 1028.38 26.6583 1025.63 28.1858C1024.73 28.6861 1024.76 28.6727 1024.89 28.5028C1025.11 28.2093 1025.67 27.2891 1026.01 26.6691C1026.47 25.8217 1027.23 23.922 1027.54 22.8609C1028.36 20.0934 1028.72 17.1056 1028.6 14.115C1028.57 13.4145 1028.51 13.2755 1028.29 13.3742Z" fill="#0C7759"/>
<path fill-rule="evenodd" clip-rule="evenodd" d="M1131.79 93.1482C1131.78 93.1934 1131.82 93.5896 1131.88 94.0285C1132.23 96.4445 1132.87 98.6409 1133.86 100.756C1134.27 101.632 1135.32 103.401 1135.8 104.003C1136.17 104.476 1136.64 105.026 1136.94 105.323C1137.06 105.446 1137.15 105.552 1137.13 105.559C1137.12 105.566 1136.97 105.513 1136.79 105.442C1136.62 105.371 1136.19 105.223 1135.83 105.114C1133.36 104.359 1130.15 104.241 1127.12 104.793C1126.18 104.965 1126.17 105.05 1127.03 105.612C1128.33 106.461 1129.88 107.224 1131.4 107.762C1132.1 108.007 1133.66 108.395 1134.34 108.492C1134.67 108.539 1135.2 108.592 1135.52 108.611L1136.12 108.646L1135.49 109.063C1134.1 109.989 1133 111.045 1132.15 112.289C1132.02 112.479 1132.01 112.52 1132.06 112.632C1132.1 112.713 1132.16 112.772 1132.22 112.792C1132.45 112.862 1134.17 112.565 1135.04 112.306C1135.86 112.06 1136.32 111.858 1137.17 111.371C1137.64 111.108 1138.1 110.826 1138.21 110.745L1138.4 110.598L1138.43 111.221C1138.46 111.819 1138.54 112.276 1138.69 112.839C1138.78 113.147 1138.87 113.278 1138.99 113.281C1139.22 113.287 1140.13 111.997 1140.44 111.229C1140.67 110.662 1140.83 109.852 1140.8 109.442C1140.79 109.261 1140.79 109.262 1141.51 110.458L1142.22 111.654L1142.39 111.683C1142.52 111.706 1142.57 111.693 1142.67 111.616C1142.9 111.432 1142.91 111.471 1142.15 110.113L1141.46 108.885L1141.88 109.09C1142.85 109.569 1144.19 109.714 1145.44 109.478C1145.82 109.407 1145.9 109.37 1145.92 109.255C1145.95 109.058 1145.11 108.275 1144.33 107.778C1143.89 107.5 1143.85 107.461 1143.93 107.44C1144.13 107.394 1145.48 106.643 1145.88 106.356C1146.78 105.71 1147.65 104.855 1148.41 103.88C1148.85 103.32 1148.9 103.205 1148.82 103.065C1148.74 102.931 1148.7 102.919 1148.37 102.941C1146.96 103.032 1145.47 103.454 1143.97 104.191L1143.29 104.523L1143.55 104.018C1144.28 102.55 1144.81 100.736 1145.06 98.8517C1145.22 97.6089 1145.27 96.4923 1145.2 95.2219C1145.17 94.5587 1145.15 94.4026 1145.09 94.3695C1144.95 94.3006 1144.85 94.3809 1144.42 94.8798C1142.28 97.3924 1140.76 100.39 1140.27 103.055C1140.11 103.928 1140.12 103.9 1140.08 103.722C1140 103.414 1139.69 102.535 1139.46 101.971C1139.15 101.199 1138.29 99.6455 1137.75 98.8555C1136.34 96.7949 1134.53 94.914 1132.46 93.3496C1131.98 92.9832 1131.85 92.9454 1131.79 93.1482Z" fill="#0C7759"/>
<path fill-rule="evenodd" clip-rule="evenodd" d="M1074.26 42.1554C1074.22 42.2391 1074.16 43.0245 1074.12 43.9005C1073.94 48.7235 1074.43 53.2235 1075.6 57.6843C1076.09 59.5332 1077.52 63.3425 1078.23 64.6799C1078.78 65.7307 1079.51 66.9649 1079.98 67.6457C1080.17 67.9281 1080.31 68.1657 1080.28 68.174C1080.25 68.1822 1079.97 68.0266 1079.66 67.8281C1079.35 67.6296 1078.56 67.191 1077.9 66.8534C1073.36 64.5246 1067.14 63.1724 1061.07 63.1946C1059.17 63.2015 1059.13 63.3635 1060.6 64.7566C1062.82 66.8613 1065.57 68.8868 1068.35 70.4657C1069.61 71.1828 1072.51 72.4821 1073.81 72.9089C1074.43 73.1137 1075.45 73.4044 1076.07 73.5549L1077.21 73.8284L1075.85 74.4212C1072.81 75.7376 1070.31 77.4129 1068.21 79.5377C1067.89 79.8619 1067.86 79.9382 1067.92 80.175C1067.96 80.3442 1068.06 80.48 1068.18 80.5411C1068.59 80.7574 1072.05 80.7788 1073.83 80.5762C1075.51 80.3846 1076.48 80.1515 1078.31 79.5011C1079.3 79.1497 1080.31 78.7636 1080.54 78.6431L1080.97 78.424L1080.81 79.6484C1080.66 80.8229 1080.65 81.7386 1080.75 82.8896C1080.81 83.5187 1080.94 83.803 1081.18 83.8521C1081.62 83.9451 1083.85 81.7512 1084.72 80.3647C1085.36 79.3398 1085.96 77.8194 1086.05 77.0108C1086.09 76.6543 1086.09 76.6547 1087.07 79.2338L1088.04 81.8134L1088.35 81.926C1088.59 82.0161 1088.71 82.0096 1088.92 81.8938C1089.43 81.6139 1089.44 81.6949 1088.44 78.7861L1087.53 76.1579L1088.27 76.7005C1090 77.9745 1092.54 78.7208 1095.07 78.6987C1095.83 78.692 1096 78.6482 1096.08 78.431C1096.22 78.0597 1094.86 76.2422 1093.51 75.0029C1092.76 74.3084 1092.68 74.2167 1092.86 74.2071C1093.26 74.1848 1096.14 73.1921 1097.02 72.7732C1099 71.8308 1101 70.4709 1102.82 68.837C1103.87 67.8987 1104.02 67.6953 1103.91 67.395C1103.8 67.1062 1103.72 67.0676 1103.08 66.9946C1100.29 66.6801 1097.25 66.984 1094.07 67.895L1092.64 68.3049L1093.31 67.4113C1095.26 64.8099 1096.93 61.4633 1098.07 57.8817C1098.83 55.5192 1099.31 53.3612 1099.63 50.8664C1099.8 49.564 1099.81 49.2526 1099.7 49.166C1099.47 48.9855 1099.23 49.1054 1098.23 49.9283C1093.17 54.0721 1089.16 59.3763 1087.27 64.3951C1086.66 66.0392 1086.68 65.9872 1086.66 65.6247C1086.62 64.9984 1086.33 63.1802 1086.08 62.0013C1085.73 60.3901 1084.62 57.068 1083.85 55.3417C1081.83 50.839 1078.97 46.5478 1075.49 42.7801C1074.67 41.8977 1074.44 41.7805 1074.26 42.1554Z" fill="#0C7759"/>
</g>
<g clip-path="url(#clip8_607:181)">
<path fill-rule="evenodd" clip-rule="evenodd" d="M1172.29 13.3742C1172.24 13.3963 1171.91 13.7237 1171.56 14.1018C1169.65 16.1835 1168.15 18.3709 1166.98 20.8018C1166.49 21.8094 1165.68 24.0454 1165.49 24.9082C1165.34 25.586 1165.19 26.4106 1165.14 26.8896C1165.12 27.0883 1165.09 27.2448 1165.07 27.2375C1165.06 27.2302 1164.99 27.0561 1164.93 26.8508C1164.87 26.6454 1164.68 26.1517 1164.52 25.7536C1163.38 23.0079 1161.12 20.0631 1158.41 17.7862C1157.56 17.0764 1157.48 17.1303 1157.6 18.3053C1157.79 20.0806 1158.25 22.0189 1158.89 23.7686C1159.18 24.5633 1159.98 26.2348 1160.39 26.9115C1160.59 27.2363 1160.93 27.7499 1161.15 28.0528L1161.56 28.6034L1160.72 28.3529C1158.87 27.7965 1157.12 27.6026 1155.38 27.7606C1155.11 27.7847 1155.06 27.8054 1155 27.9336C1154.96 28.0252 1154.95 28.1214 1154.98 28.1931C1155.08 28.4465 1156.61 29.757 1157.48 30.3364C1158.3 30.8839 1158.83 31.1463 1159.89 31.5463C1160.47 31.7625 1161.06 31.968 1161.21 32.003L1161.49 32.0667L1160.95 32.553C1160.43 33.0195 1160.08 33.4213 1159.69 33.9754C1159.48 34.2782 1159.42 34.4517 1159.51 34.5627C1159.68 34.773 1161.5 34.6349 1162.42 34.3432C1163.09 34.1276 1163.94 33.6766 1164.29 33.3485C1164.44 33.2039 1164.44 33.2041 1163.89 34.7219L1163.35 36.24L1163.44 36.4049C1163.52 36.5369 1163.57 36.5767 1163.71 36.6047C1164.04 36.6722 1164.02 36.7131 1164.68 35.0392L1165.27 33.5268L1165.39 34.0466C1165.68 35.2667 1166.53 36.5555 1167.67 37.4972C1168.01 37.7809 1168.1 37.8234 1168.22 37.7572C1168.42 37.644 1168.5 36.3211 1168.37 35.262C1168.3 34.6684 1168.3 34.5992 1168.39 34.6609C1168.57 34.8017 1170.23 35.4442 1170.79 35.5889C1172.03 35.9144 1173.44 36.0633 1174.87 36.0197C1175.69 35.9947 1175.84 35.9618 1175.9 35.7863C1175.97 35.6175 1175.94 35.57 1175.68 35.2939C1174.56 34.1055 1173.09 33.0964 1171.33 32.3047L1170.53 31.9484L1171.17 31.8023C1173.03 31.3769 1175.05 30.5153 1176.92 29.3488C1178.15 28.5793 1179.19 27.7977 1180.28 26.8082C1180.85 26.2916 1180.98 26.1576 1180.96 26.0766C1180.92 25.9079 1180.78 25.8743 1180.01 25.8632C1176.19 25.8067 1172.38 26.6583 1169.63 28.1858C1168.73 28.6861 1168.76 28.6727 1168.89 28.5028C1169.11 28.2093 1169.67 27.2891 1170.01 26.6691C1170.47 25.8217 1171.23 23.922 1171.54 22.8609C1172.36 20.0934 1172.72 17.1056 1172.6 14.115C1172.57 13.4145 1172.51 13.2755 1172.29 13.3742Z" fill="#0C7759"/>
<path fill-rule="evenodd" clip-rule="evenodd" d="M1275.79 93.1482C1275.78 93.1934 1275.82 93.5896 1275.88 94.0285C1276.23 96.4445 1276.87 98.6409 1277.86 100.756C1278.27 101.632 1279.32 103.401 1279.8 104.003C1280.17 104.476 1280.64 105.026 1280.94 105.323C1281.06 105.446 1281.15 105.552 1281.13 105.559C1281.12 105.566 1280.97 105.513 1280.79 105.442C1280.62 105.371 1280.19 105.223 1279.83 105.114C1277.36 104.359 1274.15 104.241 1271.12 104.793C1270.18 104.965 1270.17 105.05 1271.03 105.612C1272.33 106.461 1273.88 107.224 1275.4 107.762C1276.1 108.007 1277.66 108.395 1278.34 108.492C1278.67 108.539 1279.2 108.592 1279.52 108.611L1280.12 108.646L1279.49 109.063C1278.1 109.989 1277 111.045 1276.15 112.289C1276.02 112.479 1276.01 112.52 1276.06 112.632C1276.1 112.713 1276.16 112.772 1276.22 112.792C1276.45 112.862 1278.17 112.565 1279.04 112.306C1279.86 112.06 1280.32 111.858 1281.17 111.371C1281.64 111.108 1282.1 110.826 1282.21 110.745L1282.4 110.598L1282.43 111.221C1282.46 111.819 1282.54 112.276 1282.69 112.839C1282.78 113.147 1282.87 113.278 1282.99 113.281C1283.22 113.287 1284.13 111.997 1284.44 111.229C1284.67 110.662 1284.83 109.852 1284.8 109.442C1284.79 109.261 1284.79 109.262 1285.51 110.458L1286.22 111.654L1286.39 111.683C1286.52 111.706 1286.57 111.693 1286.67 111.616C1286.9 111.432 1286.91 111.471 1286.15 110.113L1285.46 108.885L1285.88 109.09C1286.85 109.569 1288.19 109.714 1289.44 109.478C1289.82 109.407 1289.9 109.37 1289.92 109.255C1289.95 109.058 1289.11 108.275 1288.33 107.778C1287.89 107.5 1287.85 107.461 1287.93 107.44C1288.13 107.394 1289.48 106.643 1289.88 106.356C1290.78 105.71 1291.65 104.855 1292.41 103.88C1292.85 103.32 1292.9 103.205 1292.82 103.065C1292.74 102.931 1292.7 102.919 1292.37 102.941C1290.96 103.032 1289.47 103.454 1287.97 104.191L1287.29 104.523L1287.55 104.018C1288.28 102.55 1288.82 100.736 1289.06 98.8517C1289.22 97.6089 1289.27 96.4923 1289.2 95.2219C1289.17 94.5587 1289.15 94.4026 1289.09 94.3695C1288.95 94.3006 1288.85 94.3809 1288.42 94.8798C1286.28 97.3924 1284.76 100.39 1284.27 103.055C1284.11 103.928 1284.12 103.9 1284.08 103.722C1284 103.414 1283.69 102.535 1283.46 101.971C1283.15 101.199 1282.29 99.6455 1281.75 98.8555C1280.34 96.7949 1278.53 94.914 1276.46 93.3496C1275.98 92.9832 1275.85 92.9454 1275.79 93.1482Z" fill="#0C7759"/>
<path fill-rule="evenodd" clip-rule="evenodd" d="M1218.26 42.1554C1218.22 42.2391 1218.16 43.0245 1218.12 43.9005C1217.94 48.7235 1218.43 53.2235 1219.6 57.6843C1220.09 59.5332 1221.52 63.3425 1222.23 64.6799C1222.78 65.7307 1223.51 66.9649 1223.98 67.6457C1224.17 67.9281 1224.31 68.1657 1224.28 68.174C1224.25 68.1822 1223.97 68.0266 1223.66 67.8281C1223.35 67.6296 1222.56 67.191 1221.9 66.8534C1217.36 64.5246 1211.14 63.1724 1205.07 63.1946C1203.17 63.2015 1203.13 63.3635 1204.6 64.7566C1206.82 66.8613 1209.57 68.8868 1212.35 70.4657C1213.61 71.1828 1216.51 72.4821 1217.81 72.9089C1218.43 73.1137 1219.45 73.4044 1220.07 73.5549L1221.21 73.8284L1219.85 74.4212C1216.81 75.7376 1214.31 77.4129 1212.21 79.5377C1211.89 79.8619 1211.86 79.9382 1211.92 80.175C1211.96 80.3442 1212.06 80.48 1212.18 80.5411C1212.59 80.7574 1216.05 80.7788 1217.83 80.5762C1219.51 80.3846 1220.48 80.1515 1222.31 79.5011C1223.3 79.1497 1224.31 78.7636 1224.54 78.6431L1224.97 78.424L1224.81 79.6484C1224.66 80.8229 1224.65 81.7386 1224.75 82.8896C1224.81 83.5187 1224.94 83.803 1225.18 83.8521C1225.62 83.9451 1227.85 81.7512 1228.72 80.3647C1229.36 79.3398 1229.96 77.8194 1230.05 77.0108C1230.09 76.6543 1230.09 76.6547 1231.07 79.2338L1232.04 81.8134L1232.35 81.926C1232.59 82.0161 1232.71 82.0096 1232.92 81.8938C1233.43 81.6139 1233.44 81.6949 1232.44 78.7861L1231.53 76.1579L1232.27 76.7005C1234 77.9745 1236.54 78.7208 1239.07 78.6987C1239.83 78.692 1240 78.6482 1240.08 78.431C1240.22 78.0597 1238.86 76.2422 1237.51 75.0029C1236.76 74.3084 1236.68 74.2167 1236.86 74.2071C1237.26 74.1848 1240.14 73.1921 1241.02 72.7732C1243 71.8308 1245 70.4709 1246.82 68.837C1247.87 67.8987 1248.02 67.6953 1247.91 67.395C1247.8 67.1062 1247.72 67.0676 1247.08 66.9946C1244.29 66.6801 1241.25 66.984 1238.07 67.895L1236.64 68.3049L1237.31 67.4113C1239.26 64.8099 1240.93 61.4633 1242.07 57.8817C1242.83 55.5192 1243.31 53.3612 1243.63 50.8664C1243.8 49.564 1243.81 49.2526 1243.7 49.166C1243.47 48.9855 1243.23 49.1054 1242.23 49.9283C1237.17 54.0721 1233.16 59.3763 1231.27 64.3951C1230.66 66.0392 1230.68 65.9872 1230.66 65.6247C1230.62 64.9984 1230.33 63.1802 1230.08 62.0013C1229.73 60.3901 1228.62 57.068 1227.85 55.3417C1225.83 50.839 1222.97 46.5478 1219.49 42.7801C1218.67 41.8977 1218.44 41.7805 1218.26 42.1554Z" fill="#0C7759"/>
</g>
<g clip-path="url(#clip9_607:181)">
<path fill-rule="evenodd" clip-rule="evenodd" d="M1316.29 13.3742C1316.24 13.3963 1315.91 13.7237 1315.56 14.1018C1313.65 16.1835 1312.15 18.3709 1310.98 20.8018C1310.49 21.8094 1309.68 24.0454 1309.49 24.9082C1309.34 25.586 1309.19 26.4106 1309.14 26.8896C1309.12 27.0883 1309.09 27.2448 1309.07 27.2375C1309.06 27.2302 1308.99 27.0561 1308.93 26.8508C1308.87 26.6454 1308.68 26.1517 1308.52 25.7536C1307.38 23.0079 1305.12 20.0631 1302.41 17.7862C1301.56 17.0764 1301.48 17.1303 1301.6 18.3053C1301.79 20.0806 1302.25 22.0189 1302.89 23.7686C1303.18 24.5633 1303.98 26.2348 1304.39 26.9115C1304.59 27.2363 1304.93 27.7499 1305.15 28.0528L1305.56 28.6034L1304.72 28.3529C1302.87 27.7965 1301.12 27.6026 1299.38 27.7606C1299.11 27.7847 1299.06 27.8054 1299 27.9336C1298.96 28.0252 1298.95 28.1214 1298.98 28.1931C1299.08 28.4465 1300.61 29.757 1301.48 30.3364C1302.3 30.8839 1302.83 31.1463 1303.89 31.5463C1304.47 31.7625 1305.06 31.968 1305.21 32.003L1305.49 32.0667L1304.95 32.553C1304.43 33.0195 1304.08 33.4213 1303.69 33.9754C1303.48 34.2782 1303.42 34.4517 1303.51 34.5627C1303.68 34.773 1305.5 34.6349 1306.42 34.3432C1307.09 34.1276 1307.94 33.6766 1308.29 33.3485C1308.44 33.2039 1308.44 33.2041 1307.89 34.7219L1307.35 36.24L1307.44 36.4049C1307.52 36.5369 1307.57 36.5767 1307.71 36.6047C1308.04 36.6722 1308.02 36.7131 1308.68 35.0392L1309.27 33.5268L1309.39 34.0466C1309.68 35.2667 1310.53 36.5555 1311.67 37.4972C1312.01 37.7809 1312.1 37.8234 1312.22 37.7572C1312.42 37.644 1312.5 36.3211 1312.37 35.262C1312.3 34.6684 1312.3 34.5992 1312.39 34.6609C1312.57 34.8017 1314.23 35.4442 1314.79 35.5889C1316.03 35.9144 1317.44 36.0633 1318.87 36.0197C1319.69 35.9947 1319.84 35.9618 1319.9 35.7863C1319.97 35.6175 1319.94 35.57 1319.68 35.2939C1318.56 34.1055 1317.09 33.0964 1315.33 32.3047L1314.53 31.9484L1315.17 31.8023C1317.03 31.3769 1319.05 30.5153 1320.92 29.3488C1322.15 28.5793 1323.19 27.7977 1324.28 26.8082C1324.85 26.2916 1324.98 26.1576 1324.96 26.0766C1324.92 25.9079 1324.78 25.8743 1324.01 25.8632C1320.19 25.8067 1316.38 26.6583 1313.63 28.1858C1312.73 28.6861 1312.76 28.6727 1312.89 28.5028C1313.11 28.2093 1313.67 27.2891 1314.01 26.6691C1314.47 25.8217 1315.23 23.922 1315.54 22.8609C1316.36 20.0934 1316.72 17.1056 1316.6 14.115C1316.57 13.4145 1316.51 13.2755 1316.29 13.3742Z" fill="#0C7759"/>
<path fill-rule="evenodd" clip-rule="evenodd" d="M1419.79 93.1482C1419.78 93.1934 1419.82 93.5896 1419.88 94.0285C1420.23 96.4445 1420.87 98.6409 1421.86 100.756C1422.27 101.632 1423.32 103.401 1423.8 104.003C1424.17 104.476 1424.64 105.026 1424.94 105.323C1425.06 105.446 1425.15 105.552 1425.13 105.559C1425.12 105.566 1424.97 105.513 1424.79 105.442C1424.62 105.371 1424.19 105.223 1423.83 105.114C1421.36 104.359 1418.15 104.241 1415.12 104.793C1414.18 104.965 1414.17 105.05 1415.03 105.612C1416.33 106.461 1417.88 107.224 1419.4 107.762C1420.1 108.007 1421.66 108.395 1422.34 108.492C1422.67 108.539 1423.2 108.592 1423.52 108.611L1424.12 108.646L1423.49 109.063C1422.1 109.989 1421 111.045 1420.15 112.289C1420.02 112.479 1420.01 112.52 1420.06 112.632C1420.1 112.713 1420.16 112.772 1420.22 112.792C1420.45 112.862 1422.17 112.565 1423.04 112.306C1423.86 112.06 1424.32 111.858 1425.17 111.371C1425.64 111.108 1426.1 110.826 1426.21 110.745L1426.4 110.598L1426.43 111.221C1426.46 111.819 1426.54 112.276 1426.69 112.839C1426.78 113.147 1426.87 113.278 1426.99 113.281C1427.22 113.287 1428.13 111.997 1428.44 111.229C1428.67 110.662 1428.83 109.852 1428.8 109.442C1428.79 109.261 1428.79 109.262 1429.51 110.458L1430.22 111.654L1430.39 111.683C1430.52 111.706 1430.57 111.693 1430.67 111.616C1430.9 111.432 1430.91 111.471 1430.15 110.113L1429.46 108.885L1429.88 109.09C1430.85 109.569 1432.19 109.714 1433.44 109.478C1433.82 109.407 1433.9 109.37 1433.92 109.255C1433.95 109.058 1433.11 108.275 1432.33 107.778C1431.89 107.5 1431.85 107.461 1431.93 107.44C1432.13 107.394 1433.48 106.643 1433.88 106.356C1434.78 105.71 1435.65 104.855 1436.41 103.88C1436.85 103.32 1436.9 103.205 1436.82 103.065C1436.74 102.931 1436.7 102.919 1436.37 102.941C1434.96 103.032 1433.47 103.454 1431.97 104.191L1431.29 104.523L1431.55 104.018C1432.28 102.55 1432.82 100.736 1433.06 98.8517C1433.22 97.6089 1433.27 96.4923 1433.2 95.2219C1433.17 94.5587 1433.15 94.4026 1433.09 94.3695C1432.95 94.3006 1432.85 94.3809 1432.42 94.8798C1430.28 97.3924 1428.76 100.39 1428.27 103.055C1428.11 103.928 1428.12 103.9 1428.08 103.722C1428 103.414 1427.69 102.535 1427.46 101.971C1427.15 101.199 1426.29 99.6455 1425.75 98.8555C1424.34 96.7949 1422.53 94.914 1420.46 93.3496C1419.98 92.9832 1419.85 92.9454 1419.79 93.1482Z" fill="#0C7759"/>
<path fill-rule="evenodd" clip-rule="evenodd" d="M1362.26 42.1554C1362.22 42.2391 1362.16 43.0245 1362.12 43.9005C1361.94 48.7235 1362.43 53.2235 1363.6 57.6843C1364.09 59.5332 1365.52 63.3425 1366.23 64.6799C1366.79 65.7307 1367.51 66.9649 1367.98 67.6457C1368.17 67.9281 1368.31 68.1657 1368.28 68.174C1368.25 68.1822 1367.97 68.0266 1367.66 67.8281C1367.35 67.6296 1366.56 67.191 1365.9 66.8534C1361.36 64.5246 1355.14 63.1724 1349.07 63.1946C1347.17 63.2015 1347.13 63.3635 1348.6 64.7566C1350.82 66.8613 1353.57 68.8868 1356.35 70.4657C1357.61 71.1828 1360.51 72.4821 1361.81 72.9089C1362.43 73.1137 1363.45 73.4044 1364.07 73.5549L1365.21 73.8284L1363.85 74.4212C1360.81 75.7376 1358.31 77.4129 1356.21 79.5377C1355.89 79.8619 1355.86 79.9382 1355.92 80.175C1355.96 80.3442 1356.06 80.48 1356.18 80.5411C1356.59 80.7574 1360.05 80.7788 1361.83 80.5762C1363.51 80.3846 1364.48 80.1515 1366.31 79.5011C1367.3 79.1497 1368.31 78.7636 1368.54 78.6431L1368.97 78.424L1368.81 79.6484C1368.66 80.8229 1368.65 81.7386 1368.76 82.8896C1368.81 83.5187 1368.94 83.803 1369.18 83.8521C1369.62 83.9451 1371.85 81.7512 1372.72 80.3647C1373.36 79.3398 1373.96 77.8194 1374.05 77.0108C1374.09 76.6543 1374.09 76.6547 1375.07 79.2338L1376.04 81.8134L1376.35 81.926C1376.59 82.0161 1376.71 82.0096 1376.92 81.8938C1377.43 81.6139 1377.44 81.6949 1376.44 78.7861L1375.53 76.1579L1376.27 76.7005C1378 77.9745 1380.54 78.7208 1383.07 78.6987C1383.83 78.692 1384 78.6482 1384.08 78.431C1384.22 78.0597 1382.86 76.2422 1381.51 75.0029C1380.76 74.3084 1380.68 74.2167 1380.86 74.2071C1381.26 74.1848 1384.14 73.1921 1385.02 72.7732C1387 71.8308 1389 70.4709 1390.82 68.837C1391.87 67.8987 1392.02 67.6953 1391.91 67.395C1391.8 67.1062 1391.72 67.0676 1391.08 66.9946C1388.29 66.6801 1385.25 66.984 1382.07 67.895L1380.64 68.3049L1381.31 67.4113C1383.26 64.8099 1384.93 61.4633 1386.07 57.8817C1386.83 55.5192 1387.31 53.3612 1387.63 50.8664C1387.8 49.564 1387.81 49.2526 1387.7 49.166C1387.47 48.9855 1387.24 49.1054 1386.23 49.9283C1381.18 54.0721 1377.16 59.3763 1375.27 64.3951C1374.66 66.0392 1374.68 65.9872 1374.66 65.6247C1374.62 64.9984 1374.33 63.1802 1374.08 62.0013C1373.73 60.3901 1372.62 57.068 1371.85 55.3417C1369.83 50.839 1366.97 46.5478 1363.49 42.7801C1362.67 41.8977 1362.44 41.7805 1362.26 42.1554Z" fill="#0C7759"/>
</g>
<g clip-path="url(#clip10_607:181)">
<path fill-rule="evenodd" clip-rule="evenodd" d="M1460.29 13.3742C1460.24 13.3963 1459.91 13.7237 1459.56 14.1018C1457.65 16.1835 1456.15 18.3709 1454.98 20.8018C1454.49 21.8094 1453.68 24.0454 1453.49 24.9082C1453.34 25.586 1453.19 26.4106 1453.14 26.8896C1453.12 27.0883 1453.09 27.2448 1453.07 27.2375C1453.06 27.2302 1452.99 27.0561 1452.93 26.8508C1452.87 26.6454 1452.68 26.1517 1452.52 25.7536C1451.38 23.0079 1449.12 20.0631 1446.41 17.7862C1445.56 17.0764 1445.48 17.1303 1445.6 18.3053C1445.79 20.0806 1446.25 22.0189 1446.89 23.7686C1447.18 24.5633 1447.98 26.2348 1448.39 26.9115C1448.59 27.2363 1448.93 27.7499 1449.15 28.0528L1449.56 28.6034L1448.72 28.3529C1446.87 27.7965 1445.12 27.6026 1443.38 27.7606C1443.11 27.7847 1443.06 27.8054 1443 27.9336C1442.96 28.0252 1442.95 28.1214 1442.98 28.1931C1443.08 28.4465 1444.61 29.757 1445.48 30.3364C1446.3 30.8839 1446.83 31.1463 1447.89 31.5463C1448.47 31.7625 1449.06 31.968 1449.21 32.003L1449.49 32.0667L1448.95 32.553C1448.43 33.0195 1448.08 33.4213 1447.69 33.9754C1447.48 34.2782 1447.42 34.4517 1447.51 34.5627C1447.68 34.773 1449.5 34.6349 1450.42 34.3432C1451.09 34.1276 1451.94 33.6766 1452.29 33.3485C1452.44 33.2039 1452.44 33.2041 1451.89 34.7219L1451.35 36.24L1451.44 36.4049C1451.52 36.5369 1451.57 36.5767 1451.71 36.6047C1452.04 36.6722 1452.02 36.7131 1452.68 35.0392L1453.27 33.5268L1453.39 34.0466C1453.68 35.2667 1454.53 36.5555 1455.67 37.4972C1456.01 37.7809 1456.1 37.8234 1456.22 37.7572C1456.42 37.644 1456.5 36.3211 1456.37 35.262C1456.3 34.6684 1456.3 34.5992 1456.39 34.6609C1456.57 34.8017 1458.23 35.4442 1458.79 35.5889C1460.03 35.9144 1461.44 36.0633 1462.87 36.0197C1463.69 35.9947 1463.84 35.9618 1463.9 35.7863C1463.97 35.6175 1463.94 35.57 1463.68 35.2939C1462.56 34.1055 1461.09 33.0964 1459.33 32.3047L1458.53 31.9484L1459.17 31.8023C1461.03 31.3769 1463.05 30.5153 1464.92 29.3488C1466.15 28.5793 1467.19 27.7977 1468.28 26.8082C1468.85 26.2916 1468.98 26.1576 1468.96 26.0766C1468.92 25.9079 1468.78 25.8743 1468.01 25.8632C1464.19 25.8067 1460.38 26.6583 1457.63 28.1858C1456.73 28.6861 1456.76 28.6727 1456.89 28.5028C1457.11 28.2093 1457.67 27.2891 1458.01 26.6691C1458.47 25.8217 1459.23 23.922 1459.54 22.8609C1460.36 20.0934 1460.72 17.1056 1460.6 14.115C1460.57 13.4145 1460.51 13.2755 1460.29 13.3742Z" fill="#0C7759"/>
<path fill-rule="evenodd" clip-rule="evenodd" d="M1563.79 93.1482C1563.78 93.1934 1563.82 93.5896 1563.88 94.0285C1564.23 96.4445 1564.87 98.6409 1565.86 100.756C1566.27 101.632 1567.32 103.401 1567.8 104.003C1568.17 104.476 1568.64 105.026 1568.94 105.323C1569.06 105.446 1569.15 105.552 1569.13 105.559C1569.12 105.566 1568.97 105.513 1568.79 105.442C1568.62 105.371 1568.19 105.223 1567.83 105.114C1565.36 104.359 1562.15 104.241 1559.12 104.793C1558.18 104.965 1558.17 105.05 1559.03 105.612C1560.33 106.461 1561.88 107.224 1563.4 107.762C1564.1 108.007 1565.66 108.395 1566.34 108.492C1566.67 108.539 1567.2 108.592 1567.52 108.611L1568.12 108.646L1567.49 109.063C1566.1 109.989 1565 111.045 1564.15 112.289C1564.02 112.479 1564.01 112.52 1564.06 112.632C1564.1 112.713 1564.16 112.772 1564.22 112.792C1564.45 112.862 1566.17 112.565 1567.04 112.306C1567.86 112.06 1568.32 111.858 1569.17 111.371C1569.64 111.108 1570.1 110.826 1570.21 110.745L1570.4 110.598L1570.43 111.221C1570.46 111.819 1570.54 112.276 1570.69 112.839C1570.78 113.147 1570.87 113.278 1570.99 113.281C1571.22 113.287 1572.13 111.997 1572.44 111.229C1572.67 110.662 1572.83 109.852 1572.8 109.442C1572.79 109.261 1572.79 109.262 1573.51 110.458L1574.22 111.654L1574.39 111.683C1574.52 111.706 1574.57 111.693 1574.67 111.616C1574.9 111.432 1574.91 111.471 1574.15 110.113L1573.46 108.885L1573.88 109.09C1574.85 109.569 1576.19 109.714 1577.44 109.478C1577.82 109.407 1577.9 109.37 1577.92 109.255C1577.95 109.058 1577.11 108.275 1576.33 107.778C1575.89 107.5 1575.85 107.461 1575.93 107.44C1576.13 107.394 1577.48 106.643 1577.88 106.356C1578.78 105.71 1579.65 104.855 1580.41 103.88C1580.85 103.32 1580.9 103.205 1580.82 103.065C1580.74 102.931 1580.7 102.919 1580.37 102.941C1578.96 103.032 1577.47 103.454 1575.97 104.191L1575.29 104.523L1575.55 104.018C1576.28 102.55 1576.82 100.736 1577.06 98.8517C1577.22 97.6089 1577.27 96.4923 1577.2 95.2219C1577.17 94.5587 1577.15 94.4026 1577.09 94.3695C1576.95 94.3006 1576.85 94.3809 1576.42 94.8798C1574.28 97.3924 1572.76 100.39 1572.27 103.055C1572.11 103.928 1572.12 103.9 1572.08 103.722C1572 103.414 1571.69 102.535 1571.46 101.971C1571.15 101.199 1570.29 99.6455 1569.75 98.8555C1568.34 96.7949 1566.53 94.914 1564.46 93.3496C1563.98 92.9832 1563.85 92.9454 1563.79 93.1482Z" fill="#0C7759"/>
<path fill-rule="evenodd" clip-rule="evenodd" d="M1506.26 42.1554C1506.22 42.2391 1506.16 43.0245 1506.12 43.9005C1505.94 48.7235 1506.43 53.2235 1507.6 57.6843C1508.09 59.5332 1509.52 63.3425 1510.23 64.6799C1510.79 65.7307 1511.51 66.9649 1511.98 67.6457C1512.17 67.9281 1512.31 68.1657 1512.28 68.174C1512.25 68.1822 1511.97 68.0266 1511.66 67.8281C1511.35 67.6296 1510.56 67.191 1509.9 66.8534C1505.36 64.5246 1499.14 63.1724 1493.07 63.1946C1491.17 63.2015 1491.13 63.3635 1492.6 64.7566C1494.82 66.8613 1497.57 68.8868 1500.35 70.4657C1501.61 71.1828 1504.51 72.4821 1505.81 72.9089C1506.43 73.1137 1507.45 73.4044 1508.07 73.5549L1509.21 73.8284L1507.85 74.4212C1504.81 75.7376 1502.31 77.4129 1500.21 79.5377C1499.89 79.8619 1499.86 79.9382 1499.92 80.175C1499.96 80.3442 1500.06 80.48 1500.18 80.5411C1500.59 80.7574 1504.05 80.7788 1505.83 80.5762C1507.51 80.3846 1508.48 80.1515 1510.31 79.5011C1511.3 79.1497 1512.31 78.7636 1512.54 78.6431L1512.97 78.424L1512.81 79.6484C1512.66 80.8229 1512.65 81.7386 1512.76 82.8896C1512.81 83.5187 1512.94 83.803 1513.18 83.8521C1513.62 83.9451 1515.85 81.7512 1516.72 80.3647C1517.36 79.3398 1517.96 77.8194 1518.05 77.0108C1518.09 76.6543 1518.09 76.6547 1519.07 79.2338L1520.04 81.8134L1520.35 81.926C1520.59 82.0161 1520.71 82.0096 1520.92 81.8938C1521.43 81.6139 1521.44 81.6949 1520.44 78.7861L1519.53 76.1579L1520.27 76.7005C1522 77.9745 1524.54 78.7208 1527.07 78.6987C1527.83 78.692 1528 78.6482 1528.08 78.431C1528.22 78.0597 1526.86 76.2422 1525.51 75.0029C1524.76 74.3084 1524.68 74.2167 1524.86 74.2071C1525.26 74.1848 1528.14 73.1921 1529.02 72.7732C1531 71.8308 1533 70.4709 1534.82 68.837C1535.87 67.8987 1536.02 67.6953 1535.91 67.395C1535.8 67.1062 1535.72 67.0676 1535.08 66.9946C1532.29 66.6801 1529.25 66.984 1526.07 67.895L1524.64 68.3049L1525.31 67.4113C1527.26 64.8099 1528.93 61.4633 1530.07 57.8817C1530.83 55.5192 1531.31 53.3612 1531.63 50.8664C1531.8 49.564 1531.81 49.2526 1531.7 49.166C1531.47 48.9855 1531.24 49.1054 1530.23 49.9283C1525.18 54.0721 1521.16 59.3763 1519.27 64.3951C1518.66 66.0392 1518.68 65.9872 1518.66 65.6247C1518.62 64.9984 1518.33 63.1802 1518.08 62.0013C1517.73 60.3901 1516.62 57.068 1515.85 55.3417C1513.83 50.839 1510.97 46.5478 1507.49 42.7801C1506.67 41.8977 1506.44 41.7805 1506.26 42.1554Z" fill="#0C7759"/>
</g>
<g clip-path="url(#clip11_607:181)">
<path fill-rule="evenodd" clip-rule="evenodd" d="M1604.29 13.3742C1604.24 13.3963 1603.91 13.7237 1603.56 14.1018C1601.65 16.1835 1600.15 18.3709 1598.98 20.8018C1598.49 21.8094 1597.68 24.0454 1597.49 24.9082C1597.34 25.586 1597.19 26.4106 1597.14 26.8896C1597.12 27.0883 1597.09 27.2448 1597.07 27.2375C1597.06 27.2302 1596.99 27.0561 1596.93 26.8508C1596.87 26.6454 1596.68 26.1517 1596.52 25.7536C1595.38 23.0079 1593.12 20.0631 1590.41 17.7862C1589.56 17.0764 1589.48 17.1303 1589.6 18.3053C1589.79 20.0806 1590.25 22.0189 1590.89 23.7686C1591.18 24.5633 1591.98 26.2348 1592.39 26.9115C1592.59 27.2363 1592.93 27.7499 1593.15 28.0528L1593.56 28.6034L1592.72 28.3529C1590.87 27.7965 1589.12 27.6026 1587.38 27.7606C1587.11 27.7847 1587.06 27.8054 1587 27.9336C1586.96 28.0252 1586.95 28.1214 1586.98 28.1931C1587.08 28.4465 1588.61 29.757 1589.48 30.3364C1590.3 30.8839 1590.83 31.1463 1591.89 31.5463C1592.47 31.7625 1593.06 31.968 1593.21 32.003L1593.49 32.0667L1592.95 32.553C1592.43 33.0195 1592.08 33.4213 1591.69 33.9754C1591.48 34.2782 1591.42 34.4517 1591.51 34.5627C1591.68 34.773 1593.5 34.6349 1594.42 34.3432C1595.09 34.1276 1595.94 33.6766 1596.29 33.3485C1596.44 33.2039 1596.44 33.2041 1595.89 34.7219L1595.35 36.24L1595.44 36.4049C1595.52 36.5369 1595.57 36.5767 1595.71 36.6047C1596.04 36.6722 1596.02 36.7131 1596.68 35.0392L1597.27 33.5268L1597.39 34.0466C1597.68 35.2667 1598.53 36.5555 1599.67 37.4972C1600.01 37.7809 1600.1 37.8234 1600.22 37.7572C1600.42 37.644 1600.5 36.3211 1600.37 35.262C1600.3 34.6684 1600.3 34.5992 1600.39 34.6609C1600.57 34.8017 1602.23 35.4442 1602.79 35.5889C1604.03 35.9144 1605.44 36.0633 1606.87 36.0197C1607.69 35.9947 1607.84 35.9618 1607.9 35.7863C1607.97 35.6175 1607.94 35.57 1607.68 35.2939C1606.56 34.1055 1605.09 33.0964 1603.33 32.3047L1602.53 31.9484L1603.17 31.8023C1605.03 31.3769 1607.05 30.5153 1608.92 29.3488C1610.15 28.5793 1611.19 27.7977 1612.28 26.8082C1612.85 26.2916 1612.98 26.1576 1612.96 26.0766C1612.92 25.9079 1612.78 25.8743 1612.01 25.8632C1608.19 25.8067 1604.38 26.6583 1601.63 28.1858C1600.73 28.6861 1600.76 28.6727 1600.89 28.5028C1601.11 28.2093 1601.67 27.2891 1602.01 26.6691C1602.47 25.8217 1603.23 23.922 1603.54 22.8609C1604.36 20.0934 1604.72 17.1056 1604.6 14.115C1604.57 13.4145 1604.51 13.2755 1604.29 13.3742Z" fill="#0C7759"/>
<path fill-rule="evenodd" clip-rule="evenodd" d="M1707.79 93.1482C1707.78 93.1934 1707.82 93.5896 1707.88 94.0285C1708.23 96.4445 1708.87 98.6409 1709.86 100.756C1710.27 101.632 1711.32 103.401 1711.8 104.003C1712.17 104.476 1712.64 105.026 1712.94 105.323C1713.06 105.446 1713.15 105.552 1713.13 105.559C1713.12 105.566 1712.97 105.513 1712.79 105.442C1712.62 105.371 1712.19 105.223 1711.83 105.114C1709.36 104.359 1706.15 104.241 1703.12 104.793C1702.18 104.965 1702.17 105.05 1703.03 105.612C1704.33 106.461 1705.88 107.224 1707.4 107.762C1708.1 108.007 1709.66 108.395 1710.34 108.492C1710.67 108.539 1711.2 108.592 1711.52 108.611L1712.12 108.646L1711.49 109.063C1710.1 109.989 1709 111.045 1708.15 112.289C1708.02 112.479 1708.01 112.52 1708.06 112.632C1708.1 112.713 1708.16 112.772 1708.22 112.792C1708.45 112.862 1710.17 112.565 1711.04 112.306C1711.86 112.06 1712.32 111.858 1713.17 111.371C1713.64 111.108 1714.1 110.826 1714.21 110.745L1714.4 110.598L1714.43 111.221C1714.46 111.819 1714.54 112.276 1714.69 112.839C1714.78 113.147 1714.87 113.278 1714.99 113.281C1715.22 113.287 1716.13 111.997 1716.44 111.229C1716.67 110.662 1716.83 109.852 1716.8 109.442C1716.79 109.261 1716.79 109.262 1717.51 110.458L1718.22 111.654L1718.39 111.683C1718.52 111.706 1718.57 111.693 1718.67 111.616C1718.9 111.432 1718.91 111.471 1718.15 110.113L1717.46 108.885L1717.88 109.09C1718.85 109.569 1720.19 109.714 1721.44 109.478C1721.82 109.407 1721.9 109.37 1721.92 109.255C1721.95 109.058 1721.11 108.275 1720.33 107.778C1719.89 107.5 1719.85 107.461 1719.93 107.44C1720.13 107.394 1721.48 106.643 1721.88 106.356C1722.78 105.71 1723.65 104.855 1724.41 103.88C1724.85 103.32 1724.9 103.205 1724.82 103.065C1724.74 102.931 1724.7 102.919 1724.37 102.941C1722.96 103.032 1721.47 103.454 1719.97 104.191L1719.29 104.523L1719.55 104.018C1720.28 102.55 1720.82 100.736 1721.06 98.8517C1721.22 97.6089 1721.27 96.4923 1721.2 95.2219C1721.17 94.5587 1721.15 94.4026 1721.09 94.3695C1720.95 94.3006 1720.85 94.3809 1720.42 94.8798C1718.28 97.3924 1716.76 100.39 1716.27 103.055C1716.11 103.928 1716.12 103.9 1716.08 103.722C1716 103.414 1715.69 102.535 1715.46 101.971C1715.15 101.199 1714.29 99.6455 1713.75 98.8555C1712.34 96.7949 1710.53 94.914 1708.46 93.3496C1707.98 92.9832 1707.85 92.9454 1707.79 93.1482Z" fill="#0C7759"/>
<path fill-rule="evenodd" clip-rule="evenodd" d="M1650.26 42.1554C1650.22 42.2391 1650.16 43.0245 1650.12 43.9005C1649.94 48.7235 1650.43 53.2235 1651.6 57.6843C1652.09 59.5332 1653.52 63.3425 1654.23 64.6799C1654.79 65.7307 1655.51 66.9649 1655.98 67.6457C1656.17 67.9281 1656.31 68.1657 1656.28 68.174C1656.25 68.1822 1655.97 68.0266 1655.66 67.8281C1655.35 67.6296 1654.56 67.191 1653.9 66.8534C1649.36 64.5246 1643.14 63.1724 1637.07 63.1946C1635.17 63.2015 1635.13 63.3635 1636.6 64.7566C1638.82 66.8613 1641.57 68.8868 1644.35 70.4657C1645.61 71.1828 1648.51 72.4821 1649.81 72.9089C1650.43 73.1137 1651.45 73.4044 1652.07 73.5549L1653.21 73.8284L1651.85 74.4212C1648.81 75.7376 1646.31 77.4129 1644.21 79.5377C1643.89 79.8619 1643.86 79.9382 1643.92 80.175C1643.96 80.3442 1644.06 80.48 1644.18 80.5411C1644.59 80.7574 1648.05 80.7788 1649.83 80.5762C1651.51 80.3846 1652.48 80.1515 1654.31 79.5011C1655.3 79.1497 1656.31 78.7636 1656.54 78.6431L1656.97 78.424L1656.81 79.6484C1656.66 80.8229 1656.65 81.7386 1656.76 82.8896C1656.81 83.5187 1656.94 83.803 1657.18 83.8521C1657.62 83.9451 1659.85 81.7512 1660.72 80.3647C1661.36 79.3398 1661.96 77.8194 1662.05 77.0108C1662.09 76.6543 1662.09 76.6547 1663.07 79.2338L1664.04 81.8134L1664.35 81.926C1664.59 82.0161 1664.71 82.0096 1664.92 81.8938C1665.43 81.6139 1665.44 81.6949 1664.44 78.7861L1663.53 76.1579L1664.27 76.7005C1666 77.9745 1668.54 78.7208 1671.07 78.6987C1671.83 78.692 1672 78.6482 1672.08 78.431C1672.22 78.0597 1670.86 76.2422 1669.51 75.0029C1668.76 74.3084 1668.68 74.2167 1668.86 74.2071C1669.26 74.1848 1672.14 73.1921 1673.02 72.7732C1675 71.8308 1677 70.4709 1678.82 68.837C1679.87 67.8987 1680.02 67.6953 1679.91 67.395C1679.8 67.1062 1679.72 67.0676 1679.08 66.9946C1676.29 66.6801 1673.25 66.984 1670.07 67.895L1668.64 68.3049L1669.31 67.4113C1671.26 64.8099 1672.93 61.4633 1674.07 57.8817C1674.83 55.5192 1675.31 53.3612 1675.63 50.8664C1675.8 49.564 1675.81 49.2526 1675.7 49.166C1675.47 48.9855 1675.24 49.1054 1674.23 49.9283C1669.18 54.0721 1665.16 59.3763 1663.27 64.3951C1662.66 66.0392 1662.68 65.9872 1662.66 65.6247C1662.62 64.9984 1662.33 63.1802 1662.08 62.0013C1661.73 60.3901 1660.62 57.068 1659.85 55.3417C1657.83 50.839 1654.97 46.5478 1651.49 42.7801C1650.67 41.8977 1650.44 41.7805 1650.26 42.1554Z" fill="#0C7759"/>
</g>
<g clip-path="url(#clip12_607:181)">
<path fill-rule="evenodd" clip-rule="evenodd" d="M1748.29 13.3742C1748.24 13.3963 1747.91 13.7237 1747.56 14.1018C1745.65 16.1835 1744.15 18.3709 1742.98 20.8018C1742.49 21.8094 1741.68 24.0454 1741.49 24.9082C1741.34 25.586 1741.19 26.4106 1741.14 26.8896C1741.12 27.0883 1741.09 27.2448 1741.07 27.2375C1741.06 27.2302 1740.99 27.0561 1740.93 26.8508C1740.87 26.6454 1740.68 26.1517 1740.52 25.7536C1739.38 23.0079 1737.12 20.0631 1734.41 17.7862C1733.56 17.0764 1733.48 17.1303 1733.6 18.3053C1733.79 20.0806 1734.25 22.0189 1734.89 23.7686C1735.18 24.5633 1735.98 26.2348 1736.39 26.9115C1736.59 27.2363 1736.93 27.7499 1737.15 28.0528L1737.56 28.6034L1736.72 28.3529C1734.87 27.7965 1733.12 27.6026 1731.38 27.7606C1731.11 27.7847 1731.06 27.8054 1731 27.9336C1730.96 28.0252 1730.95 28.1214 1730.98 28.1931C1731.08 28.4465 1732.61 29.757 1733.48 30.3364C1734.3 30.8839 1734.83 31.1463 1735.89 31.5463C1736.47 31.7625 1737.06 31.968 1737.21 32.003L1737.49 32.0667L1736.95 32.553C1736.43 33.0195 1736.08 33.4213 1735.69 33.9754C1735.48 34.2782 1735.42 34.4517 1735.51 34.5627C1735.68 34.773 1737.5 34.6349 1738.42 34.3432C1739.09 34.1276 1739.94 33.6766 1740.29 33.3485C1740.44 33.2039 1740.44 33.2041 1739.89 34.7219L1739.35 36.24L1739.44 36.4049C1739.52 36.5369 1739.57 36.5767 1739.71 36.6047C1740.04 36.6722 1740.02 36.7131 1740.68 35.0392L1741.27 33.5268L1741.39 34.0466C1741.68 35.2667 1742.53 36.5555 1743.67 37.4972C1744.01 37.7809 1744.1 37.8234 1744.22 37.7572C1744.42 37.644 1744.5 36.3211 1744.37 35.262C1744.3 34.6684 1744.3 34.5992 1744.39 34.6609C1744.57 34.8017 1746.23 35.4442 1746.79 35.5889C1748.03 35.9144 1749.44 36.0633 1750.87 36.0197C1751.69 35.9947 1751.84 35.9618 1751.9 35.7863C1751.97 35.6175 1751.94 35.57 1751.68 35.2939C1750.56 34.1055 1749.09 33.0964 1747.33 32.3047L1746.53 31.9484L1747.17 31.8023C1749.03 31.3769 1751.05 30.5153 1752.92 29.3488C1754.15 28.5793 1755.19 27.7977 1756.28 26.8082C1756.85 26.2916 1756.98 26.1576 1756.96 26.0766C1756.92 25.9079 1756.78 25.8743 1756.01 25.8632C1752.19 25.8067 1748.38 26.6583 1745.63 28.1858C1744.73 28.6861 1744.76 28.6727 1744.89 28.5028C1745.11 28.2093 1745.67 27.2891 1746.01 26.6691C1746.47 25.8217 1747.23 23.922 1747.54 22.8609C1748.36 20.0934 1748.72 17.1056 1748.6 14.115C1748.57 13.4145 1748.51 13.2755 1748.29 13.3742Z" fill="#0C7759"/>
<path fill-rule="evenodd" clip-rule="evenodd" d="M1851.79 93.1482C1851.78 93.1934 1851.82 93.5896 1851.88 94.0285C1852.23 96.4445 1852.87 98.6409 1853.86 100.756C1854.27 101.632 1855.32 103.401 1855.8 104.003C1856.17 104.476 1856.64 105.026 1856.94 105.323C1857.06 105.446 1857.15 105.552 1857.13 105.559C1857.12 105.566 1856.97 105.513 1856.79 105.442C1856.62 105.371 1856.19 105.223 1855.83 105.114C1853.36 104.359 1850.15 104.241 1847.12 104.793C1846.18 104.965 1846.17 105.05 1847.03 105.612C1848.33 106.461 1849.88 107.224 1851.4 107.762C1852.1 108.007 1853.66 108.395 1854.34 108.492C1854.67 108.539 1855.2 108.592 1855.52 108.611L1856.12 108.646L1855.49 109.063C1854.1 109.989 1853 111.045 1852.15 112.289C1852.02 112.479 1852.01 112.52 1852.06 112.632C1852.1 112.713 1852.16 112.772 1852.22 112.792C1852.45 112.862 1854.17 112.565 1855.04 112.306C1855.86 112.06 1856.32 111.858 1857.17 111.371C1857.64 111.108 1858.1 110.826 1858.21 110.745L1858.4 110.598L1858.43 111.221C1858.46 111.819 1858.54 112.276 1858.69 112.839C1858.78 113.147 1858.87 113.278 1858.99 113.281C1859.22 113.287 1860.13 111.997 1860.44 111.229C1860.67 110.662 1860.83 109.852 1860.8 109.442C1860.79 109.261 1860.79 109.262 1861.51 110.458L1862.22 111.654L1862.39 111.683C1862.52 111.706 1862.57 111.693 1862.67 111.616C1862.9 111.432 1862.91 111.471 1862.15 110.113L1861.46 108.885L1861.88 109.09C1862.85 109.569 1864.19 109.714 1865.44 109.478C1865.82 109.407 1865.9 109.37 1865.92 109.255C1865.95 109.058 1865.11 108.275 1864.33 107.778C1863.89 107.5 1863.85 107.461 1863.93 107.44C1864.13 107.394 1865.48 106.643 1865.88 106.356C1866.78 105.71 1867.65 104.855 1868.41 103.88C1868.85 103.32 1868.9 103.205 1868.82 103.065C1868.74 102.931 1868.7 102.919 1868.37 102.941C1866.96 103.032 1865.47 103.454 1863.97 104.191L1863.29 104.523L1863.55 104.018C1864.28 102.55 1864.82 100.736 1865.06 98.8517C1865.22 97.6089 1865.27 96.4923 1865.2 95.2219C1865.17 94.5587 1865.15 94.4026 1865.09 94.3695C1864.95 94.3006 1864.85 94.3809 1864.42 94.8798C1862.28 97.3924 1860.76 100.39 1860.27 103.055C1860.11 103.928 1860.12 103.9 1860.08 103.722C1860 103.414 1859.69 102.535 1859.46 101.971C1859.15 101.199 1858.29 99.6455 1857.75 98.8555C1856.34 96.7949 1854.53 94.914 1852.46 93.3496C1851.98 92.9832 1851.85 92.9454 1851.79 93.1482Z" fill="#0C7759"/>
<path fill-rule="evenodd" clip-rule="evenodd" d="M1794.26 42.1554C1794.22 42.2391 1794.16 43.0245 1794.12 43.9005C1793.94 48.7235 1794.43 53.2235 1795.6 57.6843C1796.09 59.5332 1797.52 63.3425 1798.23 64.6799C1798.79 65.7307 1799.51 66.9649 1799.98 67.6457C1800.17 67.9281 1800.31 68.1657 1800.28 68.174C1800.25 68.1822 1799.97 68.0266 1799.66 67.8281C1799.35 67.6296 1798.56 67.191 1797.9 66.8534C1793.36 64.5246 1787.14 63.1724 1781.07 63.1946C1779.17 63.2015 1779.13 63.3635 1780.6 64.7566C1782.82 66.8613 1785.57 68.8868 1788.35 70.4657C1789.61 71.1828 1792.51 72.4821 1793.81 72.9089C1794.43 73.1137 1795.45 73.4044 1796.07 73.5549L1797.21 73.8284L1795.85 74.4212C1792.81 75.7376 1790.31 77.4129 1788.21 79.5377C1787.89 79.8619 1787.86 79.9382 1787.92 80.175C1787.96 80.3442 1788.06 80.48 1788.18 80.5411C1788.59 80.7574 1792.05 80.7788 1793.83 80.5762C1795.51 80.3846 1796.48 80.1515 1798.31 79.5011C1799.3 79.1497 1800.31 78.7636 1800.54 78.6431L1800.97 78.424L1800.81 79.6484C1800.66 80.8229 1800.65 81.7386 1800.76 82.8896C1800.81 83.5187 1800.94 83.803 1801.18 83.8521C1801.62 83.9451 1803.85 81.7512 1804.72 80.3647C1805.36 79.3398 1805.96 77.8194 1806.05 77.0108C1806.09 76.6543 1806.09 76.6547 1807.07 79.2338L1808.04 81.8134L1808.35 81.926C1808.59 82.0161 1808.71 82.0096 1808.92 81.8938C1809.43 81.6139 1809.44 81.6949 1808.44 78.7861L1807.53 76.1579L1808.27 76.7005C1810 77.9745 1812.54 78.7208 1815.07 78.6987C1815.83 78.692 1816 78.6482 1816.08 78.431C1816.22 78.0597 1814.86 76.2422 1813.51 75.0029C1812.76 74.3084 1812.68 74.2167 1812.86 74.2071C1813.26 74.1848 1816.14 73.1921 1817.02 72.7732C1819 71.8308 1821 70.4709 1822.82 68.837C1823.87 67.8987 1824.02 67.6953 1823.91 67.395C1823.8 67.1062 1823.72 67.0676 1823.08 66.9946C1820.29 66.6801 1817.25 66.984 1814.07 67.895L1812.64 68.3049L1813.31 67.4113C1815.26 64.8099 1816.93 61.4633 1818.07 57.8817C1818.83 55.5192 1819.31 53.3612 1819.63 50.8664C1819.8 49.564 1819.81 49.2526 1819.7 49.166C1819.47 48.9855 1819.24 49.1054 1818.23 49.9283C1813.18 54.0721 1809.16 59.3763 1807.27 64.3951C1806.66 66.0392 1806.68 65.9872 1806.66 65.6247C1806.62 64.9984 1806.33 63.1802 1806.08 62.0013C1805.73 60.3901 1804.62 57.068 1803.85 55.3417C1801.83 50.839 1798.97 46.5478 1795.49 42.7801C1794.67 41.8977 1794.44 41.7805 1794.26 42.1554Z" fill="#0C7759"/>
</g>
<g clip-path="url(#clip13_607:181)">
<path fill-rule="evenodd" clip-rule="evenodd" d="M1892.29 13.3742C1892.24 13.3963 1891.91 13.7237 1891.56 14.1018C1889.65 16.1835 1888.15 18.3709 1886.98 20.8018C1886.49 21.8094 1885.68 24.0454 1885.49 24.9082C1885.34 25.586 1885.19 26.4106 1885.14 26.8896C1885.12 27.0883 1885.09 27.2448 1885.07 27.2375C1885.06 27.2302 1884.99 27.0561 1884.93 26.8508C1884.87 26.6454 1884.68 26.1517 1884.52 25.7536C1883.38 23.0079 1881.12 20.0631 1878.41 17.7862C1877.56 17.0764 1877.48 17.1303 1877.6 18.3053C1877.79 20.0806 1878.25 22.0189 1878.89 23.7686C1879.18 24.5633 1879.98 26.2348 1880.39 26.9115C1880.59 27.2363 1880.93 27.7499 1881.15 28.0528L1881.56 28.6034L1880.72 28.3529C1878.87 27.7965 1877.12 27.6026 1875.38 27.7606C1875.11 27.7847 1875.06 27.8054 1875 27.9336C1874.96 28.0252 1874.95 28.1214 1874.98 28.1931C1875.08 28.4465 1876.61 29.757 1877.48 30.3364C1878.3 30.8839 1878.83 31.1463 1879.89 31.5463C1880.47 31.7625 1881.06 31.968 1881.21 32.003L1881.49 32.0667L1880.95 32.553C1880.43 33.0195 1880.08 33.4213 1879.69 33.9754C1879.48 34.2782 1879.42 34.4517 1879.51 34.5627C1879.68 34.773 1881.5 34.6349 1882.42 34.3432C1883.09 34.1276 1883.94 33.6766 1884.29 33.3485C1884.44 33.2039 1884.44 33.2041 1883.89 34.7219L1883.35 36.24L1883.44 36.4049C1883.52 36.5369 1883.57 36.5767 1883.71 36.6047C1884.04 36.6722 1884.02 36.7131 1884.68 35.0392L1885.27 33.5268L1885.39 34.0466C1885.68 35.2667 1886.53 36.5555 1887.67 37.4972C1888.01 37.7809 1888.1 37.8234 1888.22 37.7572C1888.42 37.644 1888.5 36.3211 1888.37 35.262C1888.3 34.6684 1888.3 34.5992 1888.39 34.6609C1888.57 34.8017 1890.23 35.4442 1890.79 35.5889C1892.03 35.9144 1893.44 36.0633 1894.87 36.0197C1895.69 35.9947 1895.84 35.9618 1895.9 35.7863C1895.97 35.6175 1895.94 35.57 1895.68 35.2939C1894.56 34.1055 1893.09 33.0964 1891.33 32.3047L1890.53 31.9484L1891.17 31.8023C1893.03 31.3769 1895.05 30.5153 1896.92 29.3488C1898.15 28.5793 1899.19 27.7977 1900.28 26.8082C1900.85 26.2916 1900.98 26.1576 1900.96 26.0766C1900.92 25.9079 1900.78 25.8743 1900.01 25.8632C1896.19 25.8067 1892.38 26.6583 1889.63 28.1858C1888.73 28.6861 1888.76 28.6727 1888.89 28.5028C1889.11 28.2093 1889.67 27.2891 1890.01 26.6691C1890.47 25.8217 1891.23 23.922 1891.54 22.8609C1892.36 20.0934 1892.72 17.1056 1892.6 14.115C1892.57 13.4145 1892.51 13.2755 1892.29 13.3742Z" fill="#0C7759"/>
<path fill-rule="evenodd" clip-rule="evenodd" d="M1938.26 42.1554C1938.22 42.2391 1938.16 43.0245 1938.12 43.9005C1937.94 48.7235 1938.43 53.2235 1939.6 57.6843C1940.09 59.5332 1941.52 63.3425 1942.23 64.6799C1942.79 65.7307 1943.51 66.9649 1943.98 67.6457C1944.17 67.9281 1944.31 68.1657 1944.28 68.174C1944.25 68.1822 1943.97 68.0266 1943.66 67.8281C1943.35 67.6296 1942.56 67.191 1941.9 66.8534C1937.36 64.5246 1931.14 63.1724 1925.07 63.1946C1923.17 63.2015 1923.13 63.3635 1924.6 64.7566C1926.82 66.8613 1929.57 68.8868 1932.35 70.4657C1933.61 71.1828 1936.51 72.4821 1937.81 72.9089C1938.43 73.1137 1939.45 73.4044 1940.07 73.5549L1941.21 73.8284L1939.85 74.4212C1936.81 75.7376 1934.31 77.4129 1932.21 79.5377C1931.89 79.8619 1931.86 79.9382 1931.92 80.175C1931.96 80.3442 1932.06 80.48 1932.18 80.5411C1932.59 80.7574 1936.05 80.7788 1937.83 80.5762C1939.51 80.3846 1940.48 80.1515 1942.31 79.5011C1943.3 79.1497 1944.31 78.7636 1944.54 78.6431L1944.97 78.424L1944.81 79.6484C1944.66 80.8229 1944.65 81.7386 1944.76 82.8896C1944.81 83.5187 1944.94 83.803 1945.18 83.8521C1945.62 83.9451 1947.85 81.7512 1948.72 80.3647C1949.36 79.3398 1949.96 77.8194 1950.05 77.0108C1950.09 76.6543 1950.09 76.6547 1951.07 79.2338L1952.04 81.8134L1952.35 81.926C1952.59 82.0161 1952.71 82.0096 1952.92 81.8938C1953.43 81.6139 1953.44 81.6949 1952.44 78.7861L1951.53 76.1579L1952.27 76.7005C1954 77.9745 1956.54 78.7208 1959.07 78.6987C1959.83 78.692 1960 78.6482 1960.08 78.431C1960.22 78.0597 1958.86 76.2422 1957.51 75.0029C1956.76 74.3084 1956.68 74.2167 1956.86 74.2071C1957.26 74.1848 1960.14 73.1921 1961.02 72.7732C1963 71.8308 1965 70.4709 1966.82 68.837C1967.87 67.8987 1968.02 67.6953 1967.91 67.395C1967.8 67.1062 1967.72 67.0676 1967.08 66.9946C1964.29 66.6801 1961.25 66.984 1958.07 67.895L1956.64 68.3049L1957.31 67.4113C1959.26 64.8099 1960.93 61.4633 1962.07 57.8817C1962.83 55.5192 1963.31 53.3612 1963.63 50.8664C1963.8 49.564 1963.81 49.2526 1963.7 49.166C1963.47 48.9855 1963.24 49.1054 1962.23 49.9283C1957.18 54.0721 1953.16 59.3763 1951.27 64.3951C1950.66 66.0392 1950.68 65.9872 1950.66 65.6247C1950.62 64.9984 1950.33 63.1802 1950.08 62.0013C1949.73 60.3901 1948.62 57.068 1947.85 55.3417C1945.83 50.839 1942.97 46.5478 1939.49 42.7801C1938.67 41.8977 1938.44 41.7805 1938.26 42.1554Z" fill="#0C7759"/>
</g>
<defs>
<clipPath id="clip0_607:181">
<rect width="144" height="108" fill="white" transform="translate(0 9)"/>
</clipPath>
<clipPath id="clip1_607:181">
<rect width="144" height="108" fill="white" transform="translate(144 9)"/>
</clipPath>
<clipPath id="clip2_607:181">
<rect width="144" height="108" fill="white" transform="translate(288 9)"/>
</clipPath>
<clipPath id="clip3_607:181">
<rect width="144" height="108" fill="white" transform="translate(432 9)"/>
</clipPath>
<clipPath id="clip4_607:181">
<rect width="144" height="108" fill="white" transform="translate(576 9)"/>
</clipPath>
<clipPath id="clip5_607:181">
<rect width="144" height="108" fill="white" transform="translate(720 9)"/>
</clipPath>
<clipPath id="clip6_607:181">
<rect width="144" height="108" fill="white" transform="translate(864 9)"/>
</clipPath>
<clipPath id="clip7_607:181">
<rect width="144" height="108" fill="white" transform="translate(1008 9)"/>
</clipPath>
<clipPath id="clip8_607:181">
<rect width="144" height="108" fill="white" transform="translate(1152 9)"/>
</clipPath>
<clipPath id="clip9_607:181">
<rect width="144" height="108" fill="white" transform="translate(1296 9)"/>
</clipPath>
<clipPath id="clip10_607:181">
<rect width="144" height="108" fill="white" transform="translate(1440 9)"/>
</clipPath>
<clipPath id="clip11_607:181">
<rect width="144" height="108" fill="white" transform="translate(1584 9)"/>
</clipPath>
<clipPath id="clip12_607:181">
<rect width="144" height="108" fill="white" transform="translate(1728 9)"/>
</clipPath>
<clipPath id="clip13_607:181">
<rect width="144" height="108" fill="white" transform="translate(1872 9)"/>
</clipPath>
</defs>
</svg>
