<svg width="18" height="18" viewBox="0 0 18 18" fill="none" xmlns="http://www.w3.org/2000/svg">
<path d="M8.99996 0.666992C4.40496 0.666992 0.666626 4.40533 0.666626 9.00033C0.666626 13.5953 4.40496 17.3337 8.99996 17.3337C13.595 17.3337 17.3333 13.5953 17.3333 9.00033C17.3333 4.40533 13.595 0.666992 8.99996 0.666992ZM2.33329 9.00033C2.33329 8.25116 2.46329 7.53199 2.69246 6.85949L3.99996 8.16699L5.66663 9.83366V11.5003L7.33329 13.167L8.16663 14.0003V15.6095C4.88413 15.197 2.33329 12.3937 2.33329 9.00033ZM14.275 13.0612C13.7308 12.6228 12.9058 12.3337 12.3333 12.3337V11.5003C12.3333 11.0583 12.1577 10.6344 11.8451 10.3218C11.5326 10.0093 11.1087 9.83366 10.6666 9.83366H7.33329V7.33366C7.77532 7.33366 8.19924 7.15806 8.5118 6.8455C8.82436 6.53294 8.99996 6.10902 8.99996 5.66699V4.83366H9.83329C10.2753 4.83366 10.6992 4.65806 11.0118 4.3455C11.3244 4.03294 11.5 3.60902 11.5 3.16699V2.82449C13.94 3.81533 15.6666 6.20866 15.6666 9.00033C15.6665 10.4709 15.1769 11.8996 14.275 13.0612V13.0612Z" fill="white"/>
</svg>
