<svg width="20" height="18" viewBox="0 0 20 18" fill="none" xmlns="http://www.w3.org/2000/svg">
<path d="M3.457 2H1C0.734784 2 0.48043 1.89464 0.292893 1.70711C0.105357 1.51957 0 1.26522 0 1C0 0.734784 0.105357 0.48043 0.292893 0.292893C0.48043 0.105357 0.734784 2.08457e-08 1 2.08457e-08H4.273C4.50353 -4.70301e-05 4.727 0.0795566 4.90558 0.225339C5.08416 0.371121 5.20689 0.574127 5.253 0.8L5.907 4H19C19.1475 3.99994 19.2933 4.03253 19.4267 4.09543C19.5602 4.15834 19.6781 4.25 19.772 4.36384C19.8658 4.47768 19.9333 4.61088 19.9697 4.75389C20.006 4.8969 20.0102 5.04617 19.982 5.191L18.671 11.911C18.5469 12.5096 18.2175 13.0461 17.7399 13.4277C17.2622 13.8093 16.6663 14.0121 16.055 14.001L8.12 14C6.848 14.024 5.736 13.148 5.485 11.913L4.12 5.24C4.11363 5.21422 4.10829 5.1882 4.104 5.162L3.457 2ZM6.317 6L7.445 11.513C7.503 11.796 7.769 12.006 8.102 12H16.073C16.387 12.006 16.653 11.796 16.709 11.52L17.786 6H6.317ZM8 16H16C16.2652 16 16.5196 16.1054 16.7071 16.2929C16.8946 16.4804 17 16.7348 17 17C17 17.2652 16.8946 17.5196 16.7071 17.7071C16.5196 17.8946 16.2652 18 16 18H8C7.73478 18 7.48043 17.8946 7.29289 17.7071C7.10536 17.5196 7 17.2652 7 17C7 16.7348 7.10536 16.4804 7.29289 16.2929C7.48043 16.1054 7.73478 16 8 16Z" fill="white"/>
</svg>
